<?xml version="1.0" encoding="UTF-8" standalone="no"?>
<!-- Created with Inkscape (http://www.inkscape.org/) -->

<svg
   xmlns:dc="http://purl.org/dc/elements/1.1/"
   xmlns:cc="http://creativecommons.org/ns#"
   xmlns:rdf="http://www.w3.org/1999/02/22-rdf-syntax-ns#"
   xmlns:svg="http://www.w3.org/2000/svg"
   xmlns="http://www.w3.org/2000/svg"
   xmlns:sodipodi="http://sodipodi.sourceforge.net/DTD/sodipodi-0.dtd"
   xmlns:inkscape="http://www.inkscape.org/namespaces/inkscape"
   version="1.1"
   id="svg2"
   width="400"
   height="400"
   viewBox="0 0 400 400"
   sodipodi:docname="death.svg"
   inkscape:version="0.92.3 (2405546, 2018-03-11)">
  <metadata
     id="metadata8">
    <rdf:RDF>
      <cc:Work
         rdf:about="">
        <dc:format>image/svg+xml</dc:format>
        <dc:type
           rdf:resource="http://purl.org/dc/dcmitype/StillImage" />
        <dc:title></dc:title>
      </cc:Work>
    </rdf:RDF>
  </metadata>
  <defs
     id="defs6" />
  <sodipodi:namedview
     pagecolor="#ffffff"
     bordercolor="#666666"
     borderopacity="1"
     objecttolerance="10"
     gridtolerance="10"
     guidetolerance="10"
     inkscape:pageopacity="0"
     inkscape:pageshadow="2"
     inkscape:window-width="1920"
     inkscape:window-height="960"
     id="namedview4"
     showgrid="false"
     inkscape:zoom="0.68849381"
     inkscape:cx="-82.360877"
     inkscape:cy="155.07414"
     inkscape:window-x="0"
     inkscape:window-y="27"
     inkscape:window-maximized="1"
     inkscape:current-layer="svg2" />
  <path
     style="fill:#000080;stroke-width:0.99999994"
     d="m 361.00088,4.4367469 c -1.37191,0.0038 -2.75202,0.254666 -4.01927,0.779575 -4.37656,1.812833 -5.72824,3.57082 -5.72826,7.4486391 v 3.465409 l -13.51452,-0.485575 c -7.43327,-0.26732 -14.04528,-0.15907 -14.69243,0.240891 -2.78296,1.719968 0.79202,2.69518 12.30438,3.359189 l 12.29301,0.709394 -0.59749,7.905761 c -1.47472,19.529595 -1.55269,21.500882 -0.73025,18.590299 l 0.8232,-2.913448 0.2295,2.913448 c 0.63584,8.076285 0.52388,8.926487 -1.1172,8.49756 -1.13353,-0.296279 -1.76652,0.387964 -2.16421,2.338721 -0.84333,4.136667 -23.1881,144.35626 -23.22792,145.76151 -0.0415,1.46445 -1.16842,0.52781 -1.16842,-0.97115 0,-0.57864 -0.47217,-1.21073 -1.05081,-1.40361 -0.57865,-0.19289 -1.05271,0.35747 -1.05271,1.22341 0,2.64799 9.36171,8.71377 19.34901,12.53769 5.21119,1.99526 9.71725,4.02312 10.01498,4.50484 0.29772,0.48172 -0.10203,1.52081 -0.88959,2.30838 -0.78757,0.78756 -1.61411,1.97632 -1.83608,2.64221 -0.5098,1.5294 -3.27615,-0.21625 -10.84956,-6.84357 -3.0242,-2.64641 -8.65175,-6.45664 -12.50544,-8.4691 -7.12669,-3.72169 -8.42173,-4.79825 -8.44824,-7.01997 -0.0112,-0.9335 0.45958,-0.9947 1.86453,-0.24279 2.46179,1.31751 2.65359,1.28058 2.65359,-0.51023 0,-0.83352 -1.14705,-2.10774 -2.54737,-2.83188 -2.51385,-1.29996 -2.62193,-1.81793 -8.67016,-40.97226 -5.98634,-38.75361 -8.98816,-52.28082 -11.59879,-52.28082 -0.70859,0 -2.06016,-2.18509 -3.00259,-4.855746 -3.25622,-9.22765 -9.69231,-19.49381 -17.10512,-27.281319 l -3.91495,-4.112214 4.7116,-4.939194 c 5.86273,-6.145848 5.91322,-8.736088 0.20484,-10.369676 l -3.8846,-1.11151 7.7692,-0.770092 c 4.48563,-0.444809 17.77648,-0.279949 31.44664,0.390736 13.02236,0.638903 23.8195,1.018788 23.99422,0.844066 0.66652,-0.666514 3.54338,-21.213325 3.04053,-21.716185 -0.29089,-0.290889 -11.38267,-0.770018 -24.6486,-1.065988 C 220.47675,27.673801 141.5778,46.309325 84.672913,83.600572 73.742202,90.763754 57.390595,103.22001 55.796405,105.59747 c -2.021632,3.01489 1.043781,3.44869 4.933515,0.69802 3.738876,-2.64399 22.471022,-11.901246 34.352511,-16.976132 13.628099,-5.820912 38.649629,-14.362081 55.537579,-18.958278 21.35192,-5.811094 20.38373,-5.787893 13.1788,-0.330035 -12.00917,9.097143 -20.81571,20.709959 -27.16373,35.818695 -3.83759,9.13371 -13.07984,41.48444 -15.98033,55.93592 -2.99652,14.92991 -4.81305,34.77919 -4.11032,44.90427 0.29657,4.27305 2.0968,16.20753 4.0003,26.52071 3.89198,21.08664 4.43788,32.94219 1.91764,41.61147 -0.84844,2.91855 -1.83173,8.19398 -2.18509,11.72397 -0.71951,7.18795 -2.29,8.75294 -3.96426,3.94909 -3.27963,-9.41011 -16.29136,-26.19505 -23.999892,-30.95918 l -3.353495,-2.07128 4.702098,-4.99421 c 12.800609,-13.59492 19.285599,-35.89727 14.487569,-49.83019 -1.99562,-5.79505 -4.14566,-7.50613 -12.000889,-9.55216 -15.660529,-4.07905 -41.868223,0.61729 -50.786169,9.10073 -4.842266,4.60634 -5.49683,7.45848 -3.552657,15.49476 3.601516,14.88691 16.424006,34.22519 26.173605,39.4757 l 3.419883,1.84176 -4.146351,4.73815 c -2.279831,2.60618 -5.847726,7.98461 -7.930413,11.95158 -3.820443,7.27694 -5.073157,8.32392 -7.073084,5.91415 -0.82167,-0.99005 -0.72269,-2.37395 0.39453,-5.54048 2.805281,-7.95105 -0.427306,-8.96741 -7.581412,-2.38235 -3.425127,3.1527 -5.155996,5.75962 -6.583712,9.91634 -1.065214,3.10138 -3.453076,7.92649 -5.307174,10.72247 -1.854099,2.79597 -3.372471,5.48331 -3.372471,5.97105 0,0.48774 2.342081,3.87969 5.204757,7.53968 5.557265,7.10512 11.617595,16.61354 15.610465,24.49308 2.632776,5.19555 3.479861,5.71172 10.455023,6.36557 2.495504,0.23393 5.329929,0.83325 6.299194,1.33154 5.165804,2.65568 21.837425,1.85475 20.094445,-0.96546 -0.399064,-0.64569 -0.222781,-0.80346 0.441951,-0.39263 0.609172,0.37649 3.009261,-0.42833 5.33373,-1.79056 2.32447,-1.36223 4.62461,-2.4726 5.11181,-2.46581 0.48721,0.007 2.085639,2.97442 3.550769,6.59509 1.46512,3.62066 4.74275,9.1545 7.28361,12.29679 7.1136,8.79743 14.02383,12.94888 28.85565,17.33844 6.96697,2.06191 13.5141,3.81999 14.54826,3.90545 1.68741,0.13947 5.53936,-4.13726 6.60458,-7.33293 0.49738,-1.49212 11.00342,4.22459 17.04252,9.27334 2.65876,2.22274 6.96177,7.42169 9.56166,11.55325 2.59987,4.13155 5.39073,7.51864 6.20245,7.52641 0.81174,0.008 3.21533,-2.18889 5.34132,-4.8823 2.12601,-2.69341 5.89473,-6.61298 8.37426,-8.70999 13.92822,-11.77946 35.38303,-19.94616 31.02936,-11.81122 -3.04188,5.68379 -1.30028,5.36704 15.44544,-2.81102 11.46214,-5.59775 16.8243,-7.5641 29.0643,-10.65988 8.25489,-2.08786 15.12544,-3.67918 15.26904,-3.5356 0.14358,0.1436 -0.84793,7.16278 -2.20405,15.59909 -1.35613,8.43629 -2.21132,15.59371 -1.90057,15.90446 0.51961,0.5196 2.95178,-0.39132 7.80143,-2.92103 1.34169,-0.69987 2.00667,-0.66614 2.26666,0.1138 0.2023,0.6069 0.97765,1.10393 1.72417,1.10393 0.74651,0 1.62044,1.2018 1.94229,2.67066 1.9448,8.87553 3.49599,6.51703 5.96157,-9.0647 4.4355,-28.031 3.88473,-26.02836 7.72935,-28.09883 8.07646,-4.34945 27.51829,-29.58883 27.52412,-35.73146 0.002,-1.70389 -0.49815,-9.9515 -1.10962,-18.32855 -0.8661,-11.86511 -0.84531,-17.12315 0.0949,-23.79315 2.23789,-15.8768 2.27357,-18.93315 0.25987,-22.78786 -1.60237,-3.0673 -1.6758,-3.84873 -0.55007,-5.82689 0.71504,-1.25651 1.22702,-4.2503 1.13807,-6.65389 -0.0941,-2.54318 0.53708,-5.71449 1.51173,-7.58521 0.95936,-1.84138 1.54772,-4.74543 1.37706,-6.79804 -0.26506,-3.18801 -0.83359,-3.87632 -5.15355,-6.23091 -2.67065,-1.45563 -5.21405,-2.77687 -5.65239,-2.93621 -0.43834,-0.15933 4.7088,-34.71669 11.43756,-76.79475 6.72876,-42.078066 11.97812,-76.919993 11.66517,-77.42638 -0.31298,-0.506376 -2.07321,-0.91993 -3.91115,-0.91993 -2.27208,0 -3.34211,-0.451662 -3.34213,-1.409313 0,-0.774653 -0.63361,-1.762369 -1.4093,-2.196462 -1.22357,-0.684745 -1.16134,-2.524767 0.46851,-13.888192 2.76452,-19.27463 2.79485,-19.409706 4.49725,-19.409706 1.06328,0 1.36837,-0.607367 1.0034,-2.002995 -0.47092,-1.800788 -0.2133,-1.937396 2.55685,-1.354298 1.69466,0.356712 3.39588,0.938762 3.78028,1.293601 0.38441,0.35484 -0.63275,8.868874 -2.26096,18.920338 -1.62822,10.051463 -2.7272,18.509095 -2.44115,18.795147 0.28605,0.286052 1.10168,0.297017 1.81142,0.02467 0.8663,-0.332425 2.14267,-6.356558 3.88649,-18.328541 3.90431,-26.804536 3.88808,-26.491078 1.63123,-29.3601901 -1.66192,-2.112795 -4.64285,-3.303044 -7.66108,-3.294701 z m -0.0512,2.780674 c 3.51028,-0.0011 6.81323,2.115673 6.81321,5.2976941 0,2.533432 -0.52824,2.652042 -5.82689,1.316363 -1.86945,-0.471252 -4.38229,-0.637013 -5.58411,-0.367975 -2.96834,0.664498 -2.9871,-2.759336 -0.0265,-4.8329851 1.39066,-0.97406 3.02876,-1.412616 4.62434,-1.413097 z m -5.92743,8.7650001 c 0.52806,0.0065 1.01986,0.07754 1.34862,0.210542 0.65749,0.26602 -0.11607,0.467432 -1.71849,0.44764 -1.6024,-0.01979 -2.13986,-0.237449 -1.19496,-0.483678 0.47244,-0.123117 1.03677,-0.181025 1.56483,-0.174504 z m -57.26934,0.290206 c -4.65158,-0.06435 -24.75509,0.994825 -36.81642,2.101628 -89.50599,8.213497 -151.09447,28.521774 -185.343424,61.114112 -9.280622,8.831708 -14.312728,15.266257 -13.264159,16.962867 0.401706,0.64999 4.759835,-2.8691 11.052512,-8.926229 13.866506,-13.347444 25.618742,-21.528172 44.310591,-30.841566 39.89203,-19.876615 89.28778,-30.734424 168.97995,-37.14646 12.58196,-1.012343 14.42973,-1.333181 9.71149,-1.688131 l -5.82689,-0.438155 5.82689,-0.658181 c 2.75327,-0.310921 2.92,-0.458435 1.36948,-0.479885 z m 36.01976,0.675253 c 0.61608,0 1.23216,0.06185 1.69951,0.183987 0.93474,0.244271 0.16996,0.443845 -1.69951,0.443845 -1.86945,0 -2.63423,-0.199574 -1.69951,-0.443845 0.46737,-0.122135 1.08345,-0.183987 1.69951,-0.183987 z m -50.62304,0.963562 c 0.8801,0.0024 1.72443,0.06114 2.32166,0.1764 1.19445,0.230514 -0.0133,0.413194 -2.68395,0.40591 -2.67065,-0.0073 -3.648,-0.195965 -2.1718,-0.419187 0.7381,-0.111612 1.65399,-0.165526 2.53409,-0.163123 z m -13.4728,0.978736 c 0.61608,0 1.23215,0.06185 1.69951,0.183987 0.93475,0.244272 0.16997,0.443846 -1.69951,0.443846 -1.86946,0 -2.63423,-0.199574 -1.69951,-0.443846 0.46737,-0.122135 1.08345,-0.183987 1.69951,-0.183987 z m -10.68264,0.978736 c 0.44006,0 0.88011,0.06825 1.21394,0.202956 0.66766,0.269409 0.12139,0.489368 -1.21394,0.489368 -1.33533,0 -1.8816,-0.219959 -1.21394,-0.489368 0.33384,-0.134705 0.77389,-0.202956 1.21394,-0.202956 z m -8.82001,0.965459 c 0.33738,0.0139 0.62771,0.1023 0.78906,0.263652 0.3227,0.322705 -0.25089,0.5524 -1.27463,0.510233 -1.13134,-0.0466 -1.36272,-0.276088 -0.588,-0.586104 0.35052,-0.140267 0.73621,-0.201678 1.07357,-0.187781 z m 117.0709,3.24159 c 0.0586,0.02181 0.12232,0.113806 0.18967,0.280723 0.26941,0.667665 0.26941,1.760207 0,2.427872 -0.2694,0.667665 -0.48936,0.121394 -0.48936,-1.213936 0,-1.001498 0.12403,-1.560098 0.29969,-1.494659 z m -0.97115,5.826895 c 0.0586,0.02181 0.12232,0.113806 0.18967,0.280722 0.26941,0.667666 0.26941,1.760208 0,2.427873 -0.2694,0.667665 -0.48936,0.121394 -0.48936,-1.213936 0,-1.001498 0.12404,-1.560098 0.29969,-1.494659 z m -69.40492,1.604672 c 2.20026,0 4.40052,0.04744 6.06968,0.142258 3.33832,0.189638 0.60697,0.343316 -6.06968,0.343316 -6.67665,0 -9.40801,-0.153678 -6.06969,-0.343316 1.66918,-0.09482 3.86943,-0.142258 6.06969,-0.142258 z m 35.23451,0.973045 c 0.95148,-0.06196 1.97305,0.517913 2.26854,1.287911 0.29546,0.769997 0.33185,2.190303 0.0816,3.156235 -0.30568,1.179749 -0.49149,0.902111 -0.56714,-0.844065 -0.0691,-1.594937 -0.77056,-2.769926 -1.81332,-3.042428 -1.59274,-0.416236 -1.591,-0.45207 0.0304,-0.557653 z m -59.59291,0.978737 c 0.33738,0.0139 0.62772,0.1023 0.78906,0.263652 0.32271,0.322705 -0.25088,0.5524 -1.27463,0.510233 -1.13134,-0.0466 -1.36272,-0.276088 -0.588,-0.586104 0.35052,-0.140267 0.73621,-0.201678 1.07357,-0.187781 z m 22.74234,1.754518 c 1.71347,-0.0081 3.40388,-0.0065 5.0663,0.0038 6.13813,0.03799 11.89991,0.202969 17.08615,0.504542 l 12.28162,0.715084 -0.52351,5.781372 c -0.41929,4.62397 -0.25327,5.722433 0.8289,5.491166 0.74416,-0.159032 1.64942,-0.943836 2.01247,-1.745034 0.40437,-0.892343 0.6866,-0.231508 0.72836,1.707099 l 0.0683,3.165718 -5.5841,-0.737845 c -10.84192,-1.430637 -69.55635,-0.708467 -86.18949,1.060298 -19.06657,2.027532 -43.85618,5.803038 -58.75452,8.947095 -6.14251,1.296265 -11.53018,2.358567 -11.97434,2.36148 -0.86875,0.0058 2.03233,-5.170879 5.98433,-10.67695 1.3418,-1.869462 2.47326,-3.469701 2.51512,-3.556454 0.2384,-0.494477 26.26117,-5.584057 36.97953,-7.232406 22.77865,-3.503067 53.77298,-5.667789 79.47491,-5.788959 z m 69.9512,1.375162 c 0.0883,0.01337 0.19292,0.16281 0.30917,0.453329 0.28058,0.701049 0.24683,1.538033 -0.0758,1.860738 -0.32271,0.322704 -0.55238,-0.250881 -0.51024,-1.274634 0.0291,-0.707084 0.12974,-1.061721 0.27694,-1.039433 z m -31.98531,3.349706 c 0.0754,-0.04065 0.16373,0.104683 0.25606,0.459019 0.24618,0.944896 0.22997,2.255948 -0.036,2.913448 -0.26604,0.657499 -0.46745,-0.114186 -0.44764,-1.716582 0.0123,-1.001498 0.10199,-1.588134 0.22761,-1.655885 z M 191.60936,42.41399 c 0.11609,0.01952 0.24205,0.06921 0.37556,0.151742 0.53414,0.330112 0.97115,0.792509 0.97115,1.028053 0,0.235543 -0.43699,0.428671 -0.97115,0.428671 -0.53413,0 -0.97115,-0.462398 -0.97115,-1.028053 0,-0.42424 0.24734,-0.638962 0.59559,-0.580413 z m 172.62366,0.0019 c 0.0883,0.01337 0.19292,0.162811 0.30917,0.45333 0.28058,0.701048 0.24683,1.538032 -0.0758,1.860737 -0.32271,0.322704 -0.55238,-0.250881 -0.51023,-1.274633 0.0291,-0.707084 0.12973,-1.061721 0.27693,-1.039434 z m -176.21236,1.726108 c 0.33737,0.0139 0.62771,0.1023 0.78906,0.263652 0.3227,0.322705 -0.25089,0.5524 -1.27464,0.510233 -1.13134,-0.0466 -1.36271,-0.276088 -0.588,-0.586104 0.35053,-0.140267 0.73621,-0.201678 1.07358,-0.187781 z m -3.8846,0.97115 c 0.33738,0.0139 0.62771,0.1023 0.78906,0.263651 0.3227,0.322705 -0.25089,0.5524 -1.27463,0.510233 -1.13134,-0.0466 -1.36272,-0.276088 -0.58801,-0.586104 0.35053,-0.140267 0.73621,-0.201677 1.07358,-0.18778 z m -3.71578,0.483678 c 0.53743,0.03004 0.882,0.165096 0.882,0.388838 1e-5,1.04116 -3.7912,1.884542 -4.35689,0.969252 -0.26137,-0.42291 0.61129,-0.976932 1.9404,-1.231007 0.33227,-0.06351 0.65005,-0.102901 0.9389,-0.121393 0.21665,-0.01387 0.41645,-0.0157 0.59559,-0.0057 z m 182.94022,2.757912 c 0.0586,0.02181 0.12233,0.113806 0.18968,0.280722 0.2694,0.667665 0.2694,1.760208 0,2.427873 -0.26941,0.667665 -0.48937,0.121393 -0.48937,-1.213937 0,-1.001497 0.12404,-1.560097 0.29969,-1.494658 z m -196.63114,1.048916 c 0.59412,0.05233 0.0899,0.836653 -1.72797,3.203654 -5.98269,7.789618 -7.31107,11.132946 -4.82161,12.137471 0.81247,0.327841 0.72041,0.513961 -0.27881,0.565238 -0.82114,0.04215 -7.3764,1.756139 -14.56724,3.808721 -7.19085,2.052582 -14.05775,4.049556 -15.25957,4.436559 -1.20179,0.387003 -2.18507,0.481282 -2.18509,0.210545 1e-5,-0.456091 8.35986,-3.135443 21.46582,-6.879611 3.95382,-1.129544 5.7321,-2.194923 6.50974,-3.901657 0.58854,-1.291696 2.62033,-4.064329 4.51432,-6.160729 1.89397,-2.09642 3.44264,-4.472931 3.44264,-5.280628 1e-5,-0.807697 0.88067,-1.697239 1.95559,-1.978337 0.43387,-0.113461 0.75413,-0.178667 0.95218,-0.161226 z m 7.51502,0.637317 -3.35919,5.001796 c -1.88959,2.813769 -4.38146,5.284275 -5.69602,5.64671 -1.28544,0.35443 -2.33871,0.398861 -2.33873,0.09673 0,-1.630415 6.68048,-9.047945 8.85415,-9.830986 z m 83.09205,3.9415 c 9.1226,-0.172309 17.66639,1.066929 18.79705,2.89638 0.31457,0.508998 -1.66482,3.058168 -4.39862,5.665666 -2.7338,2.607494 -4.97146,5.35403 -4.97146,6.103825 0,0.749805 1.50043,2.507954 3.33265,3.905457 3.9929,3.045534 8.30717,8.677169 5.95587,7.774884 -1.87573,-0.719786 -1.89944,0.364317 -0.14605,6.760111 0.75469,2.752864 1.64172,6.90823 1.97074,9.2354 l 0.59749,4.231696 -3.67026,-2.886886 c -8.12151,-6.39001 -18.72308,-10.977837 -18.72308,-8.103026 10e-6,0.47869 1.5192,4.084076 3.37437,8.011976 3.05599,6.470386 6.96517,18.987076 6.1721,19.760606 -0.17627,0.17194 -3.51632,-1.79421 -7.42397,-4.37017 -9.73541,-6.41765 -25.45108,-12.50141 -32.54109,-12.59648 -3.37517,-0.0453 -1.19847,3.06972 3.34971,4.79314 9.839,3.72825 28.92043,18.2219 38.73027,29.4171 5.94503,6.7846 6.7916,6.29958 6.78286,-3.88459 -0.007,-7.56002 -1.08744,-17.52504 -2.50374,-23.0648 -0.94799,-3.70799 7.82896,6.85054 11.1758,13.44435 4.86699,9.58874 6.32655,8.80837 5.61825,-3.00449 -0.65325,-10.89492 -2.46881,-18.487386 -6.56094,-27.434956 -2.23499,-4.88688 -2.43798,-5.764168 -0.89907,-3.884596 8.51459,10.399506 13.08254,31.599192 11.18149,51.886282 l -0.7094,7.57763 -4.14445,-9.20126 c -2.27922,-5.06027 -4.91804,-11.22886 -5.86483,-13.70801 -0.9468,-2.47915 -2.31759,-4.50673 -3.04623,-4.50673 -1.66433,0 -1.62833,1.88735 0.1783,9.22592 0.78896,3.20479 1.67778,11.72662 1.97455,18.9374 l 0.53867,13.11052 -2.25147,-2.90397 c -12.99304,-16.75423 -17.60304,-19.70934 -13.45572,-8.62464 6.95482,18.58841 11.34744,46.58862 14.5293,92.61956 0.56492,8.17263 0.8519,9.73555 1.06788,5.8269 l 0.29401,-5.34132 0.65438,5.34132 c 0.38413,3.13439 0.72079,-3.93037 0.81372,-17.09754 0.13743,-19.48034 -0.65397,-37.68232 -2.23441,-51.36848 l -0.44953,-3.88459 1.07548,3.15623 c 0.59171,1.73593 1.6175,3.15623 2.27802,3.15623 1.46689,0 3.26747,-6.82343 4.07049,-15.42268 l 0.59748,-6.39593 1.13806,3.38195 c 2.71205,8.05963 6.37968,2.46075 9.10452,-13.89957 l 1.58381,-9.51613 4.65849,30.39583 c 2.87814,18.77991 4.41312,31.57236 4.01546,33.4781 -0.42739,2.04821 -0.1027,4.16742 0.96546,6.30867 0.88473,1.77344 1.06394,2.67999 0.39833,2.01438 -4.63007,-4.63007 -8.87687,4.69454 -5.27873,11.5912 1.20234,2.30456 1.18582,2.53874 -0.14605,2.02765 -0.87152,-0.33443 -2.06042,0.17945 -2.8224,1.22152 -1.64893,2.25504 -1.7232,10.34598 -0.11002,11.95917 0.96033,0.96034 0.92862,1.37659 -0.15553,2.04663 -0.79495,0.4913 -1.5449,3.06485 -1.80384,6.18728 -0.381,4.59438 -0.10235,5.80461 1.98783,8.5886 1.33791,1.782 3.58253,5.53403 4.98663,8.33823 1.79175,3.57848 3.12652,5.09853 4.47828,5.09853 2.41664,0 2.64529,-4.53253 0.44384,-8.78966 -0.81491,-1.57587 -1.09226,-2.86413 -0.61645,-2.86413 1.25542,0 5.81959,3.57121 10.85715,8.49566 4.05047,3.9595 4.35759,4.60059 3.9927,8.33632 -0.2962,3.03246 -0.56778,3.5635 -1.08305,2.11681 -0.49269,-1.38334 -1.17054,0.26887 -2.39183,5.82689 -0.93756,4.26674 -2.31091,10.16141 -3.05192,13.09914 l -1.3486,5.34132 0.4116,-6.79805 c 0.27755,-4.58337 0.15327,-5.84889 -0.38125,-3.8846 l -0.79286,2.91345 -0.22192,-3.39902 c -0.21025,-3.19732 -0.27817,-3.11399 -1.13996,1.39981 -1.22239,6.4025 -10.54242,66.79383 -11.21184,72.65031 -0.41768,3.65414 -0.23037,4.61296 0.90287,4.61296 1.03751,0 2.04672,-2.93918 3.67405,-10.69402 1.2341,-5.88098 2.39215,-10.54386 2.57203,-10.36399 0.17987,0.17987 -0.54993,6.55338 -1.62175,14.16323 -1.07182,7.60985 -1.69284,14.25093 -1.37896,14.75881 0.31389,0.50788 0.2896,2.20754 -0.055,3.77649 l -0.62594,2.85275 -2.81291,-2.87741 c -3.30978,-3.38585 -4.38583,-3.55856 -5.79087,-0.93322 -0.57171,1.06827 -1.82794,1.9423 -2.79205,1.9423 -1.66519,0 -1.63681,-0.71607 0.54438,-14.29221 1.26284,-7.86027 2.08977,-14.8272 1.83797,-15.48338 -0.34683,-0.90382 -2.06068,-0.72791 -7.06549,0.72647 -3.63353,1.05589 -11.23459,3.01755 -16.89268,4.36068 -7.27765,1.72761 -14.03731,4.26815 -23.10463,8.68155 -7.04948,3.43126 -12.55388,5.80972 -12.23041,5.28632 0.32346,-0.52339 0.29493,-1.87777 -0.0645,-3.01019 -0.59765,-1.88302 -1.15672,-2.01315 -6.54009,-1.52501 -10.79483,0.97884 -29.75058,12.66156 -37.91844,23.37018 -1.48447,1.94624 -3.00475,3.53845 -3.37816,3.53749 -0.37342,-9.7e-4 -2.42712,-2.88463 -4.56365,-6.40542 -2.4902,-4.10364 -6.02117,-8.10714 -9.83667,-11.15494 -6.42519,-5.13242 -16.068,-10.60108 -18.69273,-10.60108 -0.9648,0 -2.40562,1.67839 -3.54317,4.12739 -1.12262,2.41684 -2.52137,4.05435 -3.37437,3.95288 -4.43324,-0.5274 -23.51702,-6.66048 -27.63791,-8.8826 -7.56811,-4.08095 -14.404,-11.5967 -19.01707,-20.90627 -3.85135,-7.77234 -4.24874,-10.3399 -1.60088,-10.33932 0.63614,1.5e-4 3.54854,4.26107 6.47369,9.46871 5.49088,9.77535 9.86364,14.81002 12.86393,14.81002 2.33197,0 2.207,-0.7109 -1.25945,-7.11101 -4.35619,-8.04285 -2.75236,-6.74744 2.1737,1.75642 5.2304,9.0292 8.58103,9.71301 8.58101,1.74882 0,-2.6242 -16.17583,-31.3556 -17.65329,-31.3556 -0.47753,0 0.24062,-1.63129 1.59519,-3.62473 1.35459,-1.99346 2.46203,-4.39993 2.46201,-5.34702 0,-1.73859 -7.33719,-20.10326 -8.42548,-21.08835 -0.32299,-0.2924 -0.31456,0.77996 0.0189,2.38235 0.38412,1.84549 -0.29107,0.96831 -1.84177,-2.39183 -4.27884,-9.27157 -6.44171,-10.67038 -17.915048,-11.5912 l -7.283619,-0.58421 -0.671453,-8.1182 c -0.706103,-8.52079 -1.666326,-11.52025 -1.883495,-5.8838 l -0.127084,3.31936 -0.783368,-3.39902 c -0.482972,-2.09833 -0.591605,0.13208 -0.284518,5.83068 l 0.496957,9.23161 -4.265851,0.99012 c -4.130161,0.95825 -4.253196,0.9203 -3.846663,-1.20634 0.64529,-3.37565 -1.922215,-3.62759 -7.609867,-0.74544 -4.271968,2.16477 -4.985646,2.30607 -4.438452,0.8801 1.317956,-3.43451 9.495935,-14.94571 12.285415,-17.2929 3.696786,-3.11064 3.618968,-4.04267 -0.500744,-5.9976 -10.646145,-5.05193 -22.480102,-21.22344 -27.051816,-36.97006 l -1.443448,-4.97714 4.523807,1.47 c 6.710243,2.18067 28.70241,2.06744 37.542878,-0.19347 7.65889,-1.95873 15.436939,-5.52035 18.694619,-8.56015 1.20181,-1.1214 2.18509,-1.56039 2.18509,-0.97684 0,0.58356 0.24331,1.69492 0.54059,2.46961 0.31796,0.82861 -0.18183,1.64912 -1.21394,1.9935 -0.96494,0.32198 -3.82271,2.08827 -6.350409,3.92633 -9.573153,6.9613 -25.014036,9.56503 -41.776488,7.04273 -4.086294,-0.61489 -5.584107,-0.53671 -5.584107,0.29211 0,3.4972 17.143948,5.87134 29.134474,4.03443 4.346504,-0.66586 10.180236,-2.48377 14.466711,-4.50673 3.95067,-1.86448 7.387369,-3.18526 7.636419,-2.93621 0.74242,0.74242 -1.82055,10.37847 -4.208939,15.8248 -1.22308,2.789 -3.56435,7.01894 -5.20286,9.40042 -3.165212,4.60048 -3.811493,6.36696 -1.684336,4.60158 0.985596,-0.81797 1.295496,-0.7117 1.295496,0.44953 0,0.83909 -1.675857,2.8727 -3.723369,4.51812 -4.220906,3.39202 -4.728807,5.77995 -1.538291,7.2381 7.20615,3.29336 18.558309,17.01857 24.603079,29.74713 1.94334,4.09212 4.07334,7.44105 4.73246,7.44105 2.33085,0 4.29023,-3.47476 4.9335,-8.74603 0.3582,-2.9352 1.47946,-8.6874 2.49237,-12.78237 1.01291,-4.09499 1.92193,-10.86875 2.01817,-15.05281 l 0.1745,-7.60607 0.55387,7.28361 c 0.42403,5.58095 0.8925,7.28362 2.00867,7.28362 2.43073,0 1.77274,-16.99458 -1.25945,-32.53349 -1.40708,-7.21079 -3.06307,-17.26218 -3.68165,-22.33643 -1.46086,-11.98352 -0.56806,-33.35568 1.96886,-47.10074 2.28286,-12.36849 2.44974,-14.33632 1.02994,-12.13936 -0.83681,1.29486 -0.94473,1.29486 -0.97115,0 -0.0264,-1.29486 -0.13433,-1.29486 -0.97114,0 -0.60319,0.93336 -0.94626,1.02846 -0.95598,0.26555 -0.0262,-2.09625 10.68678,-38.34071 13.27554,-44.91375 6.29324,-15.979046 17.72059,-30.571051 30.99141,-39.578119 5.42063,-3.679034 7.21785,-4.273824 21.27804,-7.033244 17.12923,-3.361751 46.96556,-7.328614 62.87621,-8.35909 1.30695,-0.08465 2.6212,-0.136613 3.92443,-0.161226 z M 156.8168,54.909992 c 0.68742,-0.242652 0.0319,1.537484 -1.45672,3.954781 -2.46291,3.999447 -3.27496,4.548767 -9.01917,6.101923 -3.47186,0.938742 -9.37159,2.714071 -13.11052,3.945294 l -6.79804,2.238198 5.01508,-4.580717 c 3.99666,-3.651518 6.95233,-5.25504 14.56724,-7.900064 5.25428,-1.825061 10.11472,-3.516754 10.80213,-3.759415 z m 190.25229,2.955177 c 0.26828,-0.02088 0.61204,0.0505 1.02805,0.214343 0.93473,0.368201 3.99386,0.91423 6.79805,1.212033 3.50109,0.371804 5.09853,0.973169 5.09853,1.919536 0,0.757972 -0.40116,1.130029 -0.89148,0.827002 -0.93277,-0.576494 -2.32208,4.95648 -6.01467,23.958168 -1.21673,6.261113 -2.37416,11.221923 -2.57393,11.022163 -0.19976,-0.19977 0.56616,-6.761426 1.7033,-14.580511 1.13714,-7.819081 1.93166,-15.618613 1.7659,-17.33274 -0.69451,-7.182424 -2.42878,-1.549417 -5.37736,17.459824 -1.72423,11.115907 -6.89553,43.810243 -11.49066,72.652193 -4.59515,28.84191 -8.44527,52.53012 -8.55636,52.64121 -0.11109,0.1111 -1.34766,-0.76224 -2.74842,-1.9404 l -2.54738,-2.14146 11.54568,-71.86504 c 6.35059,-39.525756 11.55668,-72.458472 11.56843,-73.18329 0.009,-0.537667 0.24519,-0.828157 0.69232,-0.863031 z m -214.80985,3.632333 -6.06968,5.43615 c -6.37884,5.713601 -7.52995,8.142319 -3.88459,8.197868 1.20179,0.01835 -3.93316,2.347015 -11.41101,5.174409 -7.47784,2.827394 -16.436689,6.359405 -19.908548,7.848857 -3.471859,1.489442 -9.741209,4.432108 -13.931815,6.538178 -4.190606,2.10606 -7.346092,3.38702 -7.012377,2.84706 C 70.965725,96.044144 84.549315,86.675599 94.710681,80.525953 104.51626,74.591639 113.521,69.901911 124.97563,64.763746 Z m 119.50446,0.933206 c -1.34755,-0.0607 -6.08586,1.169079 -12.71029,3.385744 -21.76606,7.283385 -39.22679,18.697913 -47.45922,31.025562 -1.38738,2.07753 -2.52272,4.293436 -2.52272,4.924016 0,0.63059 4.54709,3.40602 10.10413,6.16832 36.19092,17.98996 55.08058,42.63289 66.0628,86.1819 2.72056,10.78816 5.93936,30.15065 6.85305,41.22263 0.33059,4.00599 0.84474,8.54327 1.14185,10.08325 0.9213,4.77506 2.23896,0.80469 2.25527,-6.79235 0.0443,-20.5602 -5.63364,-57.39112 -11.60447,-75.27355 -6.44378,-19.29887 -12.37155,-29.65009 -23.76281,-41.48817 -7.77633,-8.08135 -12.7614,-11.94909 -24.07387,-18.67755 -7.8961,-4.696436 -7.89931,-4.700926 -5.15734,-5.743426 8.18183,-3.11071 23.19409,-1.68728 35.92683,3.406606 3.5679,1.42738 6.74527,2.33649 7.0617,2.02006 1.17698,-1.17697 -1.7393,-5.468016 -5.63342,-8.288906 -5.36838,-3.88883 -13.06648,-6.66496 -22.56594,-8.139057 -4.30008,-0.667277 -7.97065,-1.674155 -8.15803,-2.236295 -0.79072,-2.372148 18.70902,-13.743654 29.8192,-17.389639 2.93772,-0.964079 4.74547,-1.952894 4.01737,-2.196468 -1.11767,-0.373892 -1.11767,-0.57222 0,-1.280321 0.92971,-0.589031 1.01845,-0.884756 0.40591,-0.912356 z m 100.87812,2.757915 c 0.0754,-0.04069 0.16374,0.104681 0.25606,0.459014 0.24618,0.944899 0.22997,2.25595 -0.036,2.913448 -0.26603,0.657497 -0.46745,-0.114178 -0.44764,-1.716575 0.0123,-1.001497 0.10199,-1.588139 0.22761,-1.655887 z m -138.77759,0.199164 c -2.24552,0 -11.3756,4.289799 -17.63243,8.285116 -6.54636,4.180185 -19.67735,16.570915 -23.66987,22.334521 -1.49095,2.15238 -6.51495,7.615076 -11.16441,12.139356 -4.70264,4.57603 -10.95064,12.00271 -14.07977,16.73716 -6.31544,9.55541 -11.22958,20.23737 -10.3564,22.51283 0.90329,2.35393 1.38436,1.90336 4.46122,-4.19188 5.62487,-11.1428 21.61239,-29.73796 30.67277,-35.67455 1.36533,-0.8946 3.64419,-3.99819 5.06438,-6.89858 4.96669,-10.143292 19.28559,-23.428905 32.06309,-29.747123 5.65677,-2.797153 7.93717,-5.49685 4.64142,-5.49685 z m 144.64052,1.418781 c 0.0586,0.02185 0.12233,0.113809 0.18968,0.28073 0.26941,0.667665 0.26941,1.760208 0,2.427873 -0.26941,0.667665 -0.48936,0.121393 -0.48936,-1.213937 0,-1.001497 0.12403,-1.560102 0.29968,-1.494666 z m -188.22463,5.379263 c -2.05978,0 -8.54775,5.077983 -13.11051,10.26155 -11.23273,12.761053 -24.16037,38.345529 -22.09555,43.726359 0.89088,2.32159 1.78241,1.0706 4.88989,-6.85494 4.99053,-12.72817 16.42866,-29.787942 26.69333,-39.813311 4.89109,-4.777064 6.14942,-7.319658 3.62284,-7.319658 z m 51.32485,3.558348 -4.21084,3.975642 c -6.3357,5.981997 -5.57119,7.012416 6.74493,9.085557 10.07545,1.69597 18.82898,4.823106 22.71578,8.114406 l 1.9423,1.6445 -1.9423,-0.68474 c -13.00411,-4.59001 -28.83792,-5.67199 -37.87102,-2.58719 -6.43576,2.19781 -6.51229,3.98649 -0.30159,6.999086 8.65286,4.1972 19.40354,11.79207 27.10683,19.15174 15.501,14.80958 25.19044,34.4282 30.98194,62.72259 1.18149,5.77219 1.95286,10.69103 1.71278,10.93111 -0.24008,0.24008 -0.9973,-2.07898 -1.68244,-5.15353 -0.68513,-3.07456 -2.54745,-9.30445 -4.13876,-13.84457 -11.76362,-33.56244 -29.07805,-53.58045 -60.04434,-69.42009 l -10.67884,-5.46272 3.179,-4.442236 c 4.40694,-6.157056 12.34592,-12.743603 22.60197,-18.753424 z m -55.84108,1.297397 c 0.0501,0.05011 -0.24196,0.443787 -0.84596,1.213937 -1.26868,1.617692 -2.06749,2.130827 -2.06749,1.331533 0,-0.201659 0.76479,-0.966439 1.69951,-1.699511 0.77016,-0.603987 1.16382,-0.896089 1.21394,-0.845959 z m 94.66429,14.823298 c 1.42857,0.0325 15.20289,9.682746 16.34261,11.507726 2.19493,3.51463 3.48549,2.0708 3.78597,-4.237386 l 0.2883,-6.06968 2.31217,7.226706 c 1.27153,3.97494 2.5342,10.09318 2.80534,13.59608 l 0.49316,6.36938 -4.90127,-7.28362 c -4.90882,-7.29454 -9.5189,-11.65379 -12.32335,-11.65379 -1.83202,0 -1.8335,0.27503 -0.0342,6.20625 0.79246,2.61224 1.92727,9.73812 2.52271,15.83618 0.5959,6.09806 0.86465,11.30696 0.59749,11.57413 -0.26717,0.26717 -1.45621,-0.87799 -2.64221,-2.54358 -2.92156,-4.10296 -17.44685,-16.69876 -24.93122,-21.61945 -3.34887,-2.20176 -5.91771,-4.17691 -5.7074,-4.38724 0.71297,-0.71296 17.5008,8.48537 22.68164,12.42767 2.83309,2.15581 5.56519,3.66458 6.07159,3.35161 1.85725,-1.14785 -1.54477,-16.9356 -5.34892,-24.821196 -1.35391,-2.80651 -2.30523,-5.25912 -2.113,-5.45134 0.0195,-0.0195 0.0545,-0.0295 0.10053,-0.0285 z m -85.40612,5.85535 c 0.1158,0.01 -0.14748,0.71271 -0.76251,2.24387 -0.66617,1.658466 -2.74157,4.249146 -4.61106,5.754816 -1.86946,1.5057 -5.81514,4.95547 -8.76879,7.66678 -2.95364,2.71129 -1.51673,0.99656 3.19227,-3.81063 4.709,-4.80719 9.20055,-9.614366 9.98083,-10.682636 0.5603,-0.76709 0.87919,-1.17992 0.96926,-1.1722 z m 174.64372,1.9935 c 0.0883,0.0134 0.19292,0.16282 0.30918,0.453326 0.28057,0.70105 0.24682,1.53802 -0.0759,1.86074 -0.3227,0.3227 -0.55238,-0.25089 -0.51023,-1.27464 0.0291,-0.70708 0.12973,-1.061716 0.27693,-1.039426 z m -55.18859,5.876206 c 0.0987,-0.0234 0.18701,-7.7e-4 0.26177,0.074 0.299,0.29901 0.002,1.08248 -0.66199,1.74125 -0.95911,0.95197 -1.07139,0.8416 -0.54437,-0.54248 0.27353,-0.71833 0.64863,-1.2024 0.94459,-1.27274 z m -115.42259,2.52841 c -4.25478,0 -20.90943,15.86794 -28.54078,27.19217 -7.08578,10.51467 -16.51674,34.47317 -15.55356,39.51174 0.22612,1.18284 -0.11115,2.34994 -0.74923,2.59479 -1.98329,0.76107 -3.73251,14.44521 -3.15434,24.67705 0.38636,6.83739 1.93139,14.95831 5.58411,29.36019 4.74433,18.70591 5.08748,20.87655 5.67705,35.93252 0.56578,14.44794 0.8472,16.37944 2.87551,19.64301 3.75818,6.04692 12.86693,13.43032 27.51464,22.30418 7.66504,4.64364 15.46516,9.76046 17.33462,11.37117 1.86947,1.6107 4.05835,2.9467 4.86334,2.96845 0.80498,0.0218 3.86266,-1.92749 6.79425,-4.33223 6.72002,-5.51243 15.18814,-9.63212 33.01527,-16.0581 13.72405,-4.94698 31.35656,-13.0221 35.87182,-16.42798 l 2.24389,-1.69192 -2.50943,-10.5878 c -2.48844,-10.497 -6.45601,-35.31521 -6.46611,-40.45064 -0.003,-1.46886 -0.3664,-2.67066 -0.80803,-2.67066 -0.44166,0 -0.61091,-1.31182 -0.37556,-2.91534 0.23535,-1.60355 -0.0872,-8.04956 -0.71698,-14.32445 -2.72119,-27.11441 -10.6704,-53.63637 -19.28263,-64.33674 -5.29112,-6.57401 -15.91083,-17.48068 -17.02166,-17.48068 -0.53797,0 -1.88658,0.75239 -2.9969,1.67295 -1.11033,0.92055 -1.4738,1.05242 -0.80614,0.29211 2.37884,-2.70894 1.18217,-4.65754 -5.82689,-9.48958 -11.53025,-7.94893 -30.95779,-16.75421 -36.96626,-16.75421 z m 0.89907,4.06289 8.19976,3.10312 c 7.60669,2.87892 15.14317,6.57513 10.22173,5.01318 -10.14958,-3.22122 -18.2097,-2.42893 -26.52072,2.60807 -2.83627,1.71896 -8.0592,5.97861 -11.60637,9.46491 -4.06889,3.99908 -5.63206,5.14778 -4.2355,3.11261 3.63297,-5.29424 12.65589,-14.61964 18.48408,-19.10432 z m 115.70711,5.73965 c 0.11057,-0.0155 0.25615,0.45585 0.44006,1.36567 1.4561,7.20376 1.06574,25.77196 -0.70371,33.50465 -2.37717,10.38855 -2.83,10.76941 -4.73624,3.97564 -2.29011,-8.16187 -4.45845,-8.08927 -4.52002,0.15174 -0.025,3.33833 -0.57568,8.9103 -1.22532,12.38215 l -1.1817,6.31247 -1.76779,-4.61295 c -1.30387,-3.40343 -2.28331,-4.61296 -3.73475,-4.61296 -1.55289,0 -1.8532,0.46023 -1.42637,2.18508 0.77969,3.15075 2.38185,17.24193 3.14674,27.67775 0.76076,10.37948 0.021,12.25949 -0.90476,2.2989 -0.88484,-9.52058 -5.35144,-33.25382 -7.92662,-42.11601 -1.20287,-4.13952 -2.08977,-7.52641 -1.97075,-7.52641 0.11904,0 2.73321,3.49614 5.80983,7.7692 8.1886,11.37299 8.54691,11.01265 8.15423,-8.1846 l -0.32625,-15.95567 2.59669,5.72637 c 1.4279,3.14864 3.1548,7.26859 3.83718,9.15573 0.76302,2.11009 1.88233,3.43127 2.90586,3.43127 1.35874,0 1.81303,-1.38197 2.47529,-7.5264 0.44618,-4.13953 0.7876,-12.11509 0.76061,-17.72348 -0.0253,-5.25422 0.0546,-7.64395 0.29779,-7.67814 z m -107.75961,3.00259 c 2.39671,0.0502 4.78628,0.46008 7.14326,1.231 4.85369,1.58757 18.97774,9.96764 21.09024,12.51304 1.16682,1.40595 -7.14832,11.65559 -21.61755,26.6478 -5.91979,6.13374 -8.37834,9.32427 -7.7028,9.9998 1.40902,1.40902 8.81185,-4.68269 23.74004,-19.53868 l 12.46371,-12.40303 3.97754,2.88121 c 2.18788,1.58491 4.69817,2.74345 5.57842,2.57392 1.58484,-0.30521 5.29158,3.32744 10.10791,9.90497 6.03308,8.23922 13.10742,31.57741 15.83618,52.24858 2.23465,16.92808 3.12003,15.09345 -9.21643,19.08157 -15.31544,4.95115 -23.558,4.47304 -33.25996,-1.93092 -4.07006,-2.68652 -6.57613,-3.06861 -6.57613,-1.0034 1e-5,1.56341 4.03404,5.01941 6.93082,5.93881 1.49461,0.47438 1.67,0.89761 0.80613,1.9385 -0.60827,0.73289 -0.84147,1.7593 -0.51971,2.27993 0.87506,1.41585 -1.39257,2.43891 -2.64031,1.19117 -1.79639,-1.79639 -2.88739,-1.22036 -2.41081,1.27274 0.32153,1.68197 -0.0435,2.48189 -1.28032,2.80533 -0.95188,0.24892 -1.96477,-0.15501 -2.24957,-0.89718 -0.2848,-0.74217 -1.19383,-1.3486 -2.02196,-1.3486 -1.12115,0 -1.35091,0.62007 -0.89718,2.42787 0.46441,1.85041 0.23118,2.42787 -0.98253,2.42787 -0.87586,0 -1.8454,-0.65552 -2.15285,-1.45672 -0.30745,-0.8012 -1.21431,-1.45673 -2.01627,-1.45673 -1.05344,0 -1.29631,0.64452 -0.87441,2.32545 0.38367,1.52869 0.1183,2.50587 -0.77578,2.84895 -0.86602,0.33232 -1.57621,-0.33587 -1.95368,-1.83987 -0.32623,-1.29977 -1.27575,-2.36338 -2.10921,-2.36338 -1.17853,0 -1.37397,0.64763 -0.87632,2.91345 0.50023,2.27753 0.3057,2.91345 -0.89338,2.91345 -0.98872,0 -1.53449,-0.86292 -1.53449,-2.42787 0,-1.51069 -0.55031,-2.42788 -1.45673,-2.42788 -0.97114,0 -1.45672,0.97115 -1.45672,2.91345 0,1.9423 -0.48557,2.91345 -1.45672,2.91345 -0.97115,0 -1.45673,-0.97115 -1.45673,-2.91345 0,-1.9423 -0.48557,-2.91345 -1.45672,-2.91345 -0.97115,0 -1.45672,0.97115 -1.45672,2.91345 1e-5,1.6024 -0.43699,2.91345 -0.97115,2.91345 -0.53413,0 -0.97115,-1.31105 -0.97115,-2.91345 0,-1.9423 -0.48558,-2.91345 -1.45673,-2.91345 -0.9064,0 -1.45672,0.91719 -1.45672,2.42788 0,1.36982 -0.56091,2.42787 -1.28791,2.42787 -0.87928,0 -1.15293,-0.92532 -0.86114,-2.91345 0.32438,-2.21006 0.0487,-2.91345 -1.13995,-2.91345 -0.91951,0 -1.56675,0.80252 -1.56675,1.9423 1e-5,1.08988 -0.64599,1.9423 -1.47378,1.9423 -1.08864,0 -1.31651,-0.63624 -0.86683,-2.42787 0.72345,-2.88245 -1.13832,-3.31918 -3.10503,-0.72836 -1.17281,1.54499 -1.29208,1.45669 -1.32015,-0.97115 -0.0198,-1.71276 -0.55471,-2.67066 -1.48897,-2.67066 -0.80119,0 -1.45673,0.46239 -1.45673,1.02804 0,0.56566 -0.43699,0.75879 -0.97115,0.42868 -0.53412,-0.33011 -0.97115,-1.37824 -0.97115,-2.32924 0,-0.95101 -1.20046,-2.27669 -2.66875,-2.94569 l -2.67066,-1.21584 4.30757,-2.09594 c 4.90415,-2.38694 6.9101,-4.86129 5.27114,-6.50025 -0.76451,-0.76452 -2.07888,-0.36673 -4.72676,1.43017 -4.41798,2.99813 -4.62219,3.00888 -9.77978,0.51213 -3.92436,-1.89975 -4.10962,-2.19328 -4.74953,-7.52641 -0.72921,-6.0775 -4.10963,-14.38959 -7.84316,-19.28451 -2.75412,-3.61083 -3.03634,-7.59961 -0.90097,-12.71029 0.99564,-2.3829 1.28115,-4.92476 0.86683,-7.68764 -0.35684,-2.37957 -0.0764,-6.23841 0.66007,-9.11211 1.08578,-4.23654 1.87321,-5.33409 5.24838,-7.31207 l 3.96995,-2.32734 5.48548,5.18578 c 6.58121,6.22344 17.5727,12.30911 19.23331,10.6485 0.81599,-0.81598 0.0152,-1.84243 -3.1183,-4.0022 -4.56829,-3.14868 -12.96572,-11.66764 -15.85515,-16.08466 -1.32868,-2.03114 -2.38442,-2.6405 -4.03255,-2.32544 -2.66634,0.50971 -2.53582,0.23668 3.65699,-7.63453 6.63241,-8.42995 17.24453,-18.15108 22.69303,-20.78866 3.93475,-1.90477 7.95138,-2.82077 11.94589,-2.73704 z m -51.8882,3.06898 c 0.0883,0.0134 0.19292,0.16281 0.30917,0.45333 0.28058,0.70105 0.24683,1.53802 -0.0758,1.86073 -0.32272,0.32271 -0.55238,-0.25088 -0.51023,-1.27463 0.0291,-0.70708 0.12973,-1.06172 0.27693,-1.03943 z m 211.95141,1.47759 c 0.11009,-0.12523 -0.006,0.92648 -0.25228,3.04243 -0.27966,2.40359 -1.102,7.21078 -1.82659,10.68264 l -1.31637,6.31247 0.46282,-5.34132 c 0.25505,-2.93773 1.07737,-7.74491 1.82659,-10.68264 0.65956,-2.58615 0.99573,-3.88835 1.10583,-4.01358 z m -127.02897,10.81162 c 0.26706,0 -0.30596,0.87404 -1.27274,1.9423 -0.96677,1.06827 -1.97492,1.9423 -2.24199,1.9423 -0.26706,0 0.30407,-0.87403 1.27084,-1.9423 0.96678,-1.06826 1.97682,-1.9423 2.24389,-1.9423 z m 120.91186,7.23431 c 0.37957,0.033 0.78241,0.40813 1.00719,0.9939 0.29971,0.78103 0.17412,1.64983 -0.28073,1.93093 -0.45483,0.28111 -1.07355,-0.12753 -1.37326,-0.90856 -0.29971,-0.78103 -0.17221,-1.64982 0.28262,-1.93092 0.11371,-0.0703 0.23766,-0.0963 0.36418,-0.0854 z m -127.52592,0.53489 c 0.0501,0.0501 -0.24196,0.44378 -0.84596,1.21393 -0.73307,0.93473 -1.49785,1.69951 -1.69951,1.69951 -0.7993,0 -0.28616,-0.7988 1.33153,-2.06748 0.77016,-0.60399 1.16382,-0.89609 1.21394,-0.84596 z m 127.17122,4.30378 c 0.05,-0.0214 0.0928,-3.8e-4 0.12899,0.0664 0.2891,0.53413 -0.22363,4.24877 -1.13996,8.25476 -1.92711,8.42487 -2.32731,6.39837 -0.57473,-2.91344 0.57176,-3.03788 1.2355,-5.25801 1.5857,-5.40771 z m -114.14416,2.65548 c -1.68962,0.089 -3.15572,1.42692 -5.03784,4.04772 -4.55837,6.34741 -13.17536,14.61112 -24.25597,23.26206 -5.69326,4.4449 -9.95428,8.48006 -9.95428,9.42698 0,0.9106 1.24641,3.37559 2.7693,5.47788 5.35138,7.38737 11.49618,11.30999 22.5868,14.4155 10.72588,3.00336 23.77623,0.24963 33.39842,-7.04653 4.36662,-3.31103 4.88734,-4.11006 5.16303,-7.93799 0.73027,-10.13982 -8.82511,-30.09706 -18.2906,-38.19918 -2.77528,-2.37553 -4.68924,-3.53542 -6.37886,-3.44644 z m 0.38694,2.26665 3.73286,3.0007 c 8.57007,6.88892 17.81453,24.96989 17.81451,34.84377 0,3.71179 -0.43196,4.62917 -3.15624,6.70131 -1.73591,1.32038 -5.55983,3.62428 -8.49755,5.11939 -12.82079,6.52493 -32.24748,2.5234 -42.36259,-8.72706 -2.33892,-2.60146 -4.25257,-5.23467 -4.25257,-5.85156 1e-5,-0.61688 3.87512,-4.07706 8.60947,-7.68762 9.77338,-7.45346 18.32875,-15.44354 24.13837,-22.54318 z m -77.87403,1.45673 c 0.73436,0 1.33533,0.35865 1.33533,0.79664 1e-5,0.43799 1.56382,2.62307 3.4749,4.85575 4.8423,5.65713 3.59817,5.08711 -1.73935,-0.79665 -2.42271,-2.67066 -3.80522,-4.85574 -3.07088,-4.85574 z m -25.50214,1.30687 c 0.0883,0.0134 0.19292,0.16282 0.30917,0.45334 0.28058,0.70104 0.24683,1.53801 -0.0758,1.86073 -0.32272,0.3227 -0.55238,-0.25089 -0.51023,-1.27464 0.0291,-0.70708 0.12973,-1.06171 0.27693,-1.03943 z m -0.97115,4.85575 c 0.0883,0.0134 0.19292,0.16281 0.30918,0.45333 0.28057,0.70104 0.24682,1.53802 -0.0759,1.86073 -0.32271,0.32271 -0.55238,-0.25088 -0.51023,-1.27463 0.0291,-0.70708 0.12973,-1.06172 0.27693,-1.03943 z m -0.97115,4.85574 c 0.0883,0.0134 0.19292,0.16282 0.30918,0.45334 0.28057,0.70104 0.24682,1.53802 -0.0758,1.86073 -0.32271,0.3227 -0.55238,-0.25089 -0.51023,-1.27463 0.0291,-0.70709 0.12973,-1.06172 0.27693,-1.03944 z m 23.07048,2.57773 c -1.67176,0 -5.10929,10.00266 -5.6486,16.43556 -0.77243,9.21354 0.7073,13.10877 6.36369,16.73714 4.20125,2.69495 5.04481,2.87135 12.35559,2.58341 6.70722,-0.26417 8.33291,-0.68143 11.19856,-2.86792 1.8437,-1.40673 4.53951,-4.98316 5.99193,-7.94939 2.91845,-5.96025 3.21422,-7.45812 1.47189,-7.45812 -2.36972,0 -18.95506,-8.69876 -24.82689,-13.02137 -3.33184,-2.45276 -6.43931,-4.45931 -6.90617,-4.45931 z m -24.04163,3.24917 c 0.0883,0.0134 0.19292,0.16281 0.30918,0.45333 0.28057,0.70105 0.24682,1.53802 -0.0759,1.86073 -0.32271,0.32271 -0.55238,-0.25088 -0.51023,-1.27463 0.0291,-0.70708 0.12973,-1.06172 0.27693,-1.03943 z m 24.95967,1.38275 c 1.13598,0.0359 2.82536,1.141 5.75103,3.12778 3.32462,2.25771 9.90713,5.94123 14.62793,8.18459 l 8.58291,4.07807 -2.86982,5.02835 c -1.96531,3.44112 -4.08258,5.64315 -6.707,6.98203 -7.19951,3.67291 -18.01999,1.39409 -21.96466,-4.62624 -1.93805,-2.95782 -2.17613,-11.15158 -0.50075,-17.20944 1.07541,-3.88851 1.61982,-5.6113 3.08036,-5.56514 z m -25.93082,5.41529 c 0.0883,0.0134 0.19292,0.16282 0.30918,0.45334 0.28057,0.70104 0.24682,1.53801 -0.0759,1.86073 -0.32271,0.3227 -0.55238,-0.25089 -0.51023,-1.27464 0.0291,-0.70708 0.12973,-1.06171 0.27693,-1.03943 z m 217.53741,1.9423 c 0.0883,0.0134 0.19292,0.16281 0.30918,0.45333 0.28057,0.70105 0.24682,1.53802 -0.0759,1.86074 -0.3227,0.3227 -0.55238,-0.25089 -0.51023,-1.27464 0.0291,-0.70708 0.12973,-1.06172 0.27693,-1.03943 z m -120.8303,1.9385 c -3.22454,0.0698 -5.30114,4.54247 -2.13198,6.38835 h 0.002 c 2.07625,1.2093 1.7258,1.1637 3.56215,0.45902 2.01931,-0.775 2.02509,-5.81331 0.008,-6.58751 -0.4956,-0.19017 -0.97901,-0.26982 -1.43965,-0.25986 z m 0.0531,2.58152 c 0.53415,0 0.97115,0.43702 0.97115,0.97115 0,0.53413 -0.43698,0.97115 -0.97115,0.97115 -0.53413,0 -0.97114,-0.43702 -0.97114,-0.97115 0,-0.53413 0.43701,-0.97115 0.97114,-0.97115 z m 120.10385,0.61645 c 0.0178,-0.0153 0.0306,-0.009 0.0398,0.0189 0.14745,0.45106 -0.49694,6.37424 -1.43397,13.16173 -1.21208,8.77988 -2.02956,12.14089 -2.82998,11.6462 -0.82738,-0.51135 -0.44726,-3.9944 1.43586,-13.16173 1.32034,-6.4276 2.52175,-11.43597 2.78826,-11.66517 z m -178.79957,1.32585 c -2.67569,0 -3.89024,1.35377 -3.08795,3.44454 0.29764,0.77562 1.64671,1.41121 2.99881,1.41121 1.9748,0 2.45821,-0.47755 2.45821,-2.42788 0,-1.92664 -0.4879,-2.42787 -2.36907,-2.42787 z m -25.71838,2.4146 c 0.35271,-0.0654 0.45136,0.5327 0.20675,1.4681 -0.59299,2.26763 -1.25375,2.55441 -1.25377,0.54437 0,-0.76967 0.39768,-1.64486 0.88201,-1.94419 0.0605,-0.0374 0.11463,-0.0589 0.16501,-0.0683 z m -13.1124,3.05759 c 0.0485,-0.0404 0.10267,0.47485 0.16122,1.60847 0.18754,3.6276 0.18716,9.30882 -0.002,12.62494 -0.18907,3.3161 -0.34336,0.34863 -0.34142,-6.59509 9.7e-4,-4.77381 0.0754,-7.54942 0.18209,-7.63832 z m 219.46453,1.32585 c 0.23554,0 0.42678,0.43702 0.42677,0.97115 1e-5,0.53413 -0.4624,0.97115 -1.02805,0.97115 -0.56566,0 -0.75878,-0.43702 -0.42868,-0.97115 0.33013,-0.53413 0.79441,-0.97115 1.02996,-0.97115 z m -257.219854,0.89338 c 11.441455,-0.0282 16.655595,1.1166 20.428274,4.48398 l 2.68583,2.39753 -2.41838,2.04093 c -3.585129,3.02584 -10.53222,6.32798 -17.057702,8.10871 -8.143017,2.22214 -26.596056,2.79885 -33.937118,1.0603 -3.204792,-0.75898 -6.373166,-1.40727 -7.040831,-1.44155 -1.771939,-0.091 -1.484673,-2.36998 0.63922,-5.07008 5.100864,-6.48469 21.127204,-11.54155 36.700707,-11.57982 z m 256.451664,3.15434 c 0.12635,0.0714 0.14565,0.49355 0.1119,1.2936 -0.0451,1.06827 -0.43158,3.03484 -0.85924,4.37018 -0.76195,2.37918 -0.77892,2.36944 -0.85923,-0.48558 -0.0451,-1.6024 0.34146,-3.56897 0.85923,-4.37017 0.3878,-0.60004 0.62097,-0.87942 0.74734,-0.80803 z m -204.88782,1.2936 2.43736,3.45783 c 3.57162,5.06541 5.3511,9.88252 6.10193,16.51901 0.62658,5.53817 1.87285,7.45667 5.93122,9.13298 0.10374,0.0428 2.18729,9.68031 4.63003,21.41649 2.44274,11.73618 4.81484,22.21277 5.27303,23.28103 1.43146,3.33752 29.10189,37.25392 31.87152,39.06599 1.82038,1.19102 4.50429,1.71593 8.70999,1.70331 3.343,-0.01 5.76314,0.24018 5.37927,0.55575 -0.38391,0.31555 -2.5077,1.96334 -4.72108,3.66077 -2.2134,1.69745 -4.17997,3.07261 -4.37017,3.05571 -0.19021,-0.0169 -1.5061,-1.05271 -2.92294,-2.30078 -1.41684,-1.24809 -6.00552,-4.37174 -10.19706,-6.94221 -25.63891,-15.72305 -31.13509,-20.13625 -34.8286,-27.95278 -1.90506,-4.03167 -2.14622,-5.73839 -1.70709,-12.14505 0.69557,-10.14826 -0.93069,-21.18996 -6.13418,-41.63992 -2.41721,-9.49979 -4.63281,-20.33116 -4.92403,-24.07008 z m 48.06051,1.5895 c -0.16316,0.0137 -0.32417,0.0515 -0.48179,0.11191 -2.35011,0.90183 -6.21256,24.48122 -4.38155,26.74833 0.59618,0.73817 1.6529,0.95747 2.55875,0.53109 0.84916,-0.39962 4.27533,-0.61432 7.61365,-0.47798 7.3741,0.30118 7.36786,0.33283 3.11261,-12.95118 -2.9278,-9.14 -5.97434,-14.16696 -8.42167,-13.96217 z m 0.69421,3.66836 c 1.09632,0.0286 2.73924,3.54277 5.38305,11.4167 1.7629,5.25034 2.78888,9.69656 2.27993,9.8803 -0.50894,0.18375 -1.98769,-0.36252 -3.28712,-1.21393 -1.29942,-0.85141 -2.88928,-1.54777 -3.53369,-1.54777 -0.64439,0 -1.9708,0.72259 -2.94759,1.60656 -0.97679,0.88396 -1.77728,1.31883 -1.77728,0.96547 0,-2.00012 3.05187,-20.51359 3.44644,-20.90816 0.13563,-0.13562 0.27964,-0.20325 0.43626,-0.19917 z m 153.89679,2.4734 c 0.0586,0.0219 0.12233,0.1138 0.18968,0.28072 0.2694,0.66767 0.2694,1.76021 0,2.42788 -0.26941,0.66766 -0.48936,0.12139 -0.48936,-1.21394 0,-1.0015 0.12403,-1.5601 0.29968,-1.49466 z m -21.67255,2.74842 c 0.0717,-0.0468 0.65162,0.22117 1.79624,0.76631 1.33534,0.63595 2.61122,1.31511 2.83378,1.50982 1.33273,1.16602 -1.82922,0.0825 -3.37626,-1.15702 -0.88874,-0.71204 -1.32548,-1.07233 -1.25376,-1.11911 z m 0.74543,2.89639 c 1.43896,-0.054 3.96426,1.21353 3.96426,2.27423 0,0.73889 -0.32775,1.32957 -0.72837,1.31256 -1.16842,-0.0495 -4.51534,-2.81757 -4.01357,-3.31935 0.17199,-0.17199 0.44561,-0.25499 0.77768,-0.26744 z m -8.05181,0.82319 c 0.99104,-0.002 3.39561,1.56551 8.63602,5.39254 4.55213,3.32439 11.57993,7.17736 17.71209,9.71149 5.59079,2.31043 10.26085,4.20136 10.37916,4.20136 0.11827,0 0.21622,-0.67427 0.21622,-1.49845 0,-0.82419 -0.49017,-1.31086 -1.08874,-1.08117 -0.59858,0.2297 -2.32867,-0.0897 -3.84476,-0.70939 -2.4787,-1.01316 -2.59761,-1.25911 -1.17791,-2.43736 0.87274,-0.72429 1.57812,-0.8649 1.57812,-0.31487 1e-5,0.54728 1.34496,1.46269 2.98743,2.03525 1.64245,0.57257 2.72664,1.4597 2.4108,1.97074 -0.31584,0.51105 -0.12935,1.20469 0.41349,1.54019 0.54285,0.33549 0.98632,2.28437 0.98632,4.33223 1e-5,2.5564 -0.49882,3.91605 -1.59329,4.33603 -1.17881,0.45236 -1.35081,0.28821 -0.65817,-0.62593 0.51513,-0.6799 0.96292,-2.76436 0.9939,-4.63382 0.031,-1.86947 -0.12907,-2.50972 -0.35469,-1.42259 -0.22563,1.08713 -1.3031,2.53394 -2.39374,3.21504 -2.34478,1.46434 -3.85334,0.65511 -11.55326,-6.18349 -2.71292,-2.40946 -8.84448,-6.34345 -13.62454,-8.74413 -6.69263,-3.36125 -8.69102,-4.82377 -8.69103,-6.3561 1e-5,-1.09442 -0.437,-1.71855 -0.97114,-1.38844 -0.53413,0.33011 -0.97115,0.13698 -0.97115,-0.42867 0,-0.58468 0.15839,-0.90961 0.60887,-0.91046 z m -26.4752,0.21813 c 0.0883,0.0134 0.19292,0.16282 0.30918,0.45334 0.28057,0.70104 0.24682,1.53802 -0.0759,1.86073 -0.3227,0.3227 -0.55238,-0.25089 -0.51023,-1.27464 0.0291,-0.70708 0.12973,-1.06172 0.27693,-1.03943 z m -160.09735,0.48558 c 0.0531,0.0306 0.11154,0.15895 0.17261,0.39263 0.24426,0.93473 0.24426,2.46429 0,3.39903 -0.24428,0.93473 -0.44385,0.16995 -0.44385,-1.69952 0,-1.40209 0.11198,-2.18375 0.27124,-2.09214 z m 220.24601,0.18967 c 1.02913,-0.054 6.50595,2.79482 6.50593,3.38386 0,0.63562 -0.0568,0.61423 -3.8846,-1.48139 -1.86945,-1.02348 -3.04845,-1.88003 -2.62133,-1.90247 z m -18.97725,1.06979 c 0.55703,-0.0612 1.49136,0.4974 2.99502,1.65398 1.42643,1.09723 2.15088,2.51908 1.9423,3.81252 -0.32137,1.99252 -0.42493,2.00828 -3.00451,0.43247 -1.64906,-1.00739 -2.67066,-2.47501 -2.67066,-3.83528 0,-1.32171 0.18083,-2.00252 0.73785,-2.06369 z m -178.00481,1.28033 c 0.0586,0.0219 0.12233,0.11379 0.18968,0.28072 0.2694,0.66766 0.2694,1.7602 0,2.42787 -0.26941,0.66766 -0.48937,0.12139 -0.48937,-1.21394 0,-1.0015 0.12404,-1.5601 0.29969,-1.49465 z m 205.11922,1.98023 0.15554,3.52231 c 0.10327,2.34069 -0.41477,3.97016 -1.54398,4.85574 -1.48033,1.16096 -1.55352,1.14517 -0.56524,-0.12708 0.62402,-0.80335 1.32065,-2.98843 1.54588,-4.85575 z m -20.72227,1.84176 c 0.0631,-0.0152 0.15412,0.0974 0.26555,0.34901 0.29714,0.67095 0.88216,1.00893 1.29929,0.75112 0.41713,-0.2578 1.54162,0.3978 2.49995,1.45672 2.1738,2.40203 1.66442,2.92785 -1.48328,1.5326 -1.33533,-0.59189 -2.52423,-1.9495 -2.64221,-3.01777 -0.0737,-0.66766 -0.0444,-1.04638 0.0607,-1.07168 z m -206.83201,0.92184 c 0.0883,0.0134 0.19292,0.16281 0.30918,0.45333 0.28057,0.70104 0.24682,1.53803 -0.0759,1.86073 -0.32271,0.3227 -0.55238,-0.25089 -0.51023,-1.27463 0.0291,-0.70709 0.12973,-1.06172 0.27693,-1.03943 z m 215.09816,3.08606 c 0.0986,-0.0109 0.20709,0.0171 0.32055,0.0872 0.45382,0.28048 0.57286,0.91588 0.26555,1.4131 -0.78529,1.27064 -1.09065,1.12729 -1.09065,-0.51023 0,-0.58328 0.20866,-0.95757 0.50455,-0.99011 z m -26.11291,1.43396 c 0.51534,0 1.40474,0.87403 1.97643,1.94229 1.24819,2.33226 0.69555,2.49748 -1.38654,0.41539 -1.75912,-1.75912 -1.90963,-2.35768 -0.58989,-2.35768 z m -50.0673,1.1722 c 0.0634,0.003 0.10474,0.0139 0.12329,0.036 0.11361,0.13594 -2.34663,9.6087 -5.46839,21.05042 -6.67859,24.47777 -4.73627,21.68928 -28.09885,40.34252 -8.82815,7.04861 -18.00551,14.67974 -20.39413,16.95907 -4.85207,4.63009 -8.59158,5.65873 -13.13327,3.60956 -1.89284,-0.85403 -8.25088,-7.96029 -17.60587,-19.67525 -12.52663,-15.6867 -14.74046,-18.96781 -15.32216,-22.7063 l -0.68094,-4.37017 4.38345,7.57761 c 2.41023,4.16805 6.04915,9.78494 8.08785,12.48079 3.6848,4.87254 13.10004,12.4751 15.44924,12.4751 2.00445,0 4.28102,-2.87838 4.28102,-5.41151 0,-2.88887 -1.25779,-3.03204 -3.04053,-0.34711 -1.32847,2.00079 -1.35398,1.99692 -5.34132,-0.89148 -3.3655,-2.43798 -6.06436,-5.54873 -14.10253,-16.25157 -0.50959,-0.67853 -0.0615,-0.99695 1.26705,-0.89907 1.13114,0.0833 2.62195,0.92299 3.31176,1.86642 0.84345,1.15343 1.91413,1.50713 3.26815,1.07737 1.23838,-0.39304 2.01248,-0.21077 2.01248,0.4742 0,0.73227 0.99791,0.89491 2.91345,0.47419 2.27753,-0.50023 2.91344,-0.3057 2.91344,0.89338 0,0.84364 0.65556,1.53449 1.45673,1.53449 0.80119,0 1.45672,-0.43702 1.45672,-0.97115 0,-0.53413 0.65555,-0.97115 1.45672,-0.97115 0.8012,0 1.45673,0.43702 1.45673,0.97115 0,0.53413 0.65555,0.97115 1.45672,0.97115 0.8012,0 1.45672,-0.43702 1.45672,-0.97115 1e-5,-1.36898 2.67192,-1.21396 3.13727,0.18209 0.27542,0.82626 1.01822,0.70995 2.61945,-0.4116 1.22965,-0.86128 2.83031,-1.33895 3.55646,-1.0603 0.72616,0.27864 1.97894,-0.15234 2.78447,-0.95786 0.80654,-0.80656 2.34466,-1.23435 3.42368,-0.95219 1.36837,0.35784 1.95938,0.0381 1.95936,-1.0584 0,-1.51087 1.0479,-1.98014 3.65509,-1.63882 0.67482,0.0884 1.52126,-0.62402 1.88161,-1.58381 0.78716,-2.09659 3.37908,-4.18104 4.4081,-3.54507 0.40649,0.25123 0.73784,-0.19907 0.73784,-1.0015 1e-5,-0.80243 0.9666,-2.13587 2.14715,-2.96276 1.18054,-0.82688 2.69489,-2.49042 3.36489,-3.69681 1.92605,-3.46809 1.55219,0.0409 -0.72078,6.77149 -2.98151,8.82875 -18.61714,26.48278 -23.45552,26.48278 -0.94206,0 -2.25769,-0.87404 -2.92483,-1.9423 -1.66894,-2.67239 -3.66079,-2.43817 -3.66079,0.43057 0,2.75967 3.25349,5.39633 6.65769,5.39633 1.28697,0 3.80987,-0.90947 5.60687,-2.02007 5.38967,-3.33101 17.79321,-18.05895 21.11869,-25.07728 2.88394,-6.0864 3.05154,-7.10064 3.36869,-20.24618 l 0.33382,-13.83887 h 2.94759 2.94949 l -0.67905,7.76919 c -0.62548,7.17045 -0.53711,7.7692 1.13048,7.7692 0.99376,0 3.63797,-1.86576 5.87622,-4.14636 3.22448,-3.2855 4.27736,-5.24461 5.07197,-9.43456 0.55157,-2.90843 1.32393,-5.57148 1.71658,-5.91794 0.79697,-0.7032 6.47305,-2.68429 7.42398,-2.63652 z m -137.9468,0.13467 c 0.0883,0.0134 0.19292,0.16281 0.30918,0.45333 0.28057,0.70105 0.24682,1.53803 -0.0759,1.86073 -0.32271,0.32271 -0.55238,-0.25088 -0.51023,-1.27463 0.0291,-0.70708 0.12973,-1.06172 0.27693,-1.03943 z m 194.22983,0.97115 c 0.0883,0.0134 0.19292,0.16281 0.30918,0.45333 0.28057,0.70105 0.24682,1.53803 -0.0759,1.86073 -0.3227,0.32271 -0.55238,-0.25088 -0.51023,-1.27463 0.0291,-0.70708 0.12973,-1.06172 0.27693,-1.03943 z m -12.69512,0.0967 c 0.63173,0.0578 4.14213,2.27895 8.15424,5.1763 4.27958,3.09051 9.70424,6.43235 12.05401,7.42778 14.09558,5.97121 16.52626,7.31658 15.46631,8.54876 -0.58525,0.68034 -1.60878,2.02978 -2.27613,2.9988 -1.15852,1.6822 -1.34451,1.66279 -4.09514,-0.42488 -1.58449,-1.20258 -5.06629,-4.20971 -7.73696,-6.68234 -2.67066,-2.47263 -8.06214,-6.1811 -11.98193,-8.23959 -6.35097,-3.33522 -10.94795,-7.51147 -9.67165,-8.78776 0.0158,-0.0158 0.0452,-0.0209 0.0872,-0.0171 z m 15.78686,0.39832 2.89069,2.1756 c 4.28463,3.22415 9.20125,7.94655 9.20125,8.83708 10e-6,1.32519 -2.21897,0.85835 -7.4069,-1.55726 -5.88102,-2.73832 -6.32893,-3.30382 -5.39443,-6.79804 z m -70.20346,0.90097 -0.69232,4.71728 c -0.45123,3.07708 -1.57105,5.64796 -3.22073,7.38984 -1.39111,1.46886 -2.88325,2.67066 -3.31745,2.67066 -0.99252,0 -1.05234,-12.35726 -0.0626,-12.93981 0.40061,-0.23577 2.20646,-0.74484 4.01168,-1.13237 z m 65.84467,2.15284 c 0.56566,0 0.75691,0.43702 0.42677,0.97115 -0.3301,0.53413 -0.7925,0.97115 -1.02805,0.97115 -0.23554,0 -0.42865,-0.43702 -0.42867,-0.97115 10e-6,-0.53413 0.4643,-0.97115 1.02995,-0.97115 z m -87.9459,0.34522 c 0.22759,-0.0128 0.47303,-0.01 0.72837,0.0114 0.34043,0.0279 0.70012,0.0874 1.06219,0.17829 2.49764,0.62687 2.57773,0.87022 2.57771,7.77488 0,6.2575 -0.29659,7.44784 -2.42787,9.74754 l -2.42787,2.61944 -0.0588,-2.32734 c -0.033,-1.27979 -0.37854,-5.50699 -0.7682,-9.39473 -0.38963,-3.88776 -0.43085,-7.51907 -0.091,-8.06888 0.1952,-0.31584 0.72274,-0.5022 1.40551,-0.54058 z m -145.674266,3.59628 c -9.569801,0.0465 -16.99511,3.65658 -16.99511,8.26235 0,2.40929 4.550028,6.74129 9.225917,8.78398 5.884591,2.5707 10.573153,1.09532 15.934819,-5.01129 2.347559,-2.67372 3.038991,-4.28981 2.814821,-6.58181 -0.388434,-3.97125 -3.447126,-5.48985 -10.980447,-5.45323 z m 140.579526,0.44384 c 0.32183,0.0622 0.74847,1.20495 1.12479,3.55836 0.35395,2.21347 0.23675,4.43121 -0.25986,4.92781 -0.55647,0.55647 -1.04243,-0.8415 -1.26514,-3.6418 -0.25596,-3.21822 -0.0136,-4.92427 0.40021,-4.84437 z m 51.67576,1.8892 c 0.0586,0.0219 0.12232,0.1138 0.18967,0.28072 0.26941,0.66766 0.26941,1.76021 0,2.42787 -0.2694,0.66767 -0.48936,0.12139 -0.48936,-1.21394 0,-1.00149 0.12404,-1.5601 0.29969,-1.49465 z m -192.160444,0.13276 c 7.225826,-0.11658 9.555108,1.31041 7.938008,4.85955 -0.596237,1.3086 -1.55446,2.22053 -2.130079,2.02575 -0.575629,-0.19478 -2.452239,0.22952 -4.171008,0.94459 -1.718779,0.71508 -4.851997,1.3012 -6.961168,1.3012 -2.109171,0 -3.988063,0.46216 -4.176699,1.02805 -0.188626,0.56589 -1.373933,-0.0675 -2.632727,-1.40741 -1.367077,-1.45519 -2.049096,-3.05929 -1.69382,-3.98512 0.938528,-2.44577 7.368322,-4.66239 13.827493,-4.76661 z m 252.003724,0.64301 c 0.0389,-0.0587 0.565,0.1896 1.61414,0.69801 1.20181,0.58239 2.1851,1.26346 2.18509,1.51173 1e-5,0.74315 -0.50338,0.52714 -2.48477,-1.06029 -0.90512,-0.72515 -1.35346,-1.09078 -1.31446,-1.14945 z m -28.73427,0.23331 2.18509,1.84935 c 1.2018,1.01751 2.18509,2.00081 2.18508,2.18508 0,0.77718 -0.78036,0.20409 -2.5189,-1.84935 z m -87.92693,0.0493 c 0.94812,-0.0362 2.23745,7.97707 1.43396,9.27713 -0.29595,0.47885 -0.95032,0.87062 -1.45293,0.87062 -1.1484,0 -1.21543,-9.41076 -0.072,-10.1174 0.0298,-0.0185 0.0605,-0.0291 0.091,-0.0303 z m -57.57093,1.48897 c 0.18232,-9.7e-4 0.31106,0.29426 0.31106,0.78527 1e-5,0.65468 0.43177,0.92191 0.95978,0.59559 0.55051,-0.34024 0.71479,0.05 0.38315,0.91424 -0.3181,0.82894 -0.70458,1.50794 -0.85735,1.50794 -0.60475,0 -1.47058,-3.22393 -0.9939,-3.70061 0.0699,-0.0699 0.13648,-0.1021 0.19726,-0.10243 z m 101.86064,0.16312 c 0.12054,0.13184 0.9403,5.26659 1.8228,11.40911 0.88251,6.14252 2.67133,15.9523 3.97565,21.79964 1.84767,8.28322 2.1064,10.81157 1.16841,11.44895 -4.44442,3.02006 -24.84724,12.10895 -36.6514,16.32744 -7.74489,2.76782 -16.83304,6.47248 -20.19686,8.232 -9.4629,4.94979 -3.73187,-0.97232 15.80963,-16.33503 6.93413,-5.45132 15.50347,-12.63639 19.04173,-15.96706 l 6.43197,-6.0564 4.18997,-15.54787 c 2.30395,-8.55207 4.28758,-15.4426 4.4081,-15.31078 z m -87.59878,0.091 c 0.0883,0.0134 0.19291,0.16281 0.30917,0.45333 0.28058,0.70105 0.24683,1.53803 -0.0758,1.86073 -0.3227,0.32271 -0.55238,-0.25088 -0.51023,-1.27463 0.0291,-0.70708 0.12974,-1.06172 0.27693,-1.03943 z m 37.62823,1.08875 c 0.77167,-0.13325 1.40799,2.41566 2.058,8.19597 0.30353,2.69918 -1.63274,3.8519 -2.5322,1.50793 -0.93245,-2.42994 -0.71652,-9.00271 0.31676,-9.6413 0.0527,-0.0325 0.106,-0.0537 0.15744,-0.0626 z m 100.68844,0.28642 3.17331,1.81521 c 1.74575,0.99806 5.61598,4.09299 8.59998,6.87771 2.984,2.78471 5.20628,5.05976 4.9392,5.05491 -0.26706,-0.005 -3.10767,-1.23574 -6.31247,-2.73326 -6.21298,-2.90318 -8.57066,-5.02144 -9.69821,-8.71378 z m -133.39834,0.0322 c 0.0754,-0.0407 0.16374,0.10468 0.25606,0.45902 0.24618,0.9449 0.22998,2.25595 -0.036,2.91345 -0.26603,0.6575 -0.46745,-0.11419 -0.44764,-1.71658 0.0123,-1.0015 0.10199,-1.58813 0.22761,-1.65589 z m -53.47579,0.53489 c 0.0883,0.0134 0.19292,0.16281 0.30917,0.45333 0.28058,0.70104 0.24683,1.53803 -0.0758,1.86073 -0.32272,0.32271 -0.55238,-0.25088 -0.51024,-1.27463 0.0291,-0.70708 0.12974,-1.06172 0.27694,-1.03943 z m 69.92274,0 c 0.0883,0.0134 0.19292,0.16281 0.30917,0.45333 0.28058,0.70104 0.24683,1.53803 -0.0759,1.86073 -0.3227,0.32271 -0.55238,-0.25088 -0.51023,-1.27463 0.0291,-0.70708 0.12974,-1.06172 0.27694,-1.03943 z m -11.55516,0.11191 c 0.0586,0.0219 0.12232,0.1138 0.18967,0.28072 0.26941,0.66767 0.26941,1.76021 0,2.42788 -0.2694,0.66766 -0.48936,0.12139 -0.48936,-1.21394 0,-1.0015 0.12403,-1.5601 0.29969,-1.49466 z m 5.82689,0 c 0.0586,0.0219 0.12233,0.1138 0.18968,0.28072 0.2694,0.66767 0.2694,1.76021 0,2.42788 -0.26941,0.66766 -0.48937,0.12139 -0.48937,-1.21394 0,-1.0015 0.12404,-1.5601 0.29969,-1.49466 z m 113.62066,0.77957 c 0.5807,-0.008 3.43816,1.89662 6.63492,4.44036 3.40989,2.71333 10.51076,6.93428 15.77928,9.37955 5.26851,2.44529 9.74532,4.61266 9.94858,4.81591 0.20325,0.20326 -0.5412,1.27905 -1.65398,2.39184 -1.11277,1.11277 -2.23215,2.02386 -2.48857,2.02386 -0.25642,0 -3.27956,-2.54909 -6.71649,-5.66377 -3.43692,-3.11468 -9.34187,-7.28888 -13.12188,-9.27523 -6.22408,-3.27066 -9.8343,-6.71696 -8.46722,-8.08406 0.0179,-0.0179 0.0466,-0.028 0.0854,-0.0285 z m 18.97344,0.71509 c 0.0501,-0.0501 0.4438,0.24197 1.21394,0.84596 0.93475,0.73307 1.69951,1.49785 1.69951,1.69951 10e-6,0.79929 -0.79691,0.28616 -2.06559,-1.33153 -0.60398,-0.77015 -0.89798,-1.16382 -0.84786,-1.21394 z m -116.33683,0.0796 c 0.19162,0.0312 0.38712,0.48299 0.72267,1.37707 0.40091,1.06826 0.97957,3.5469 1.28602,5.50823 0.39516,2.52917 0.17041,3.71382 -0.77389,4.07617 -1.56208,0.59943 -3.06244,-7.01931 -1.93281,-9.81581 0.31822,-0.78782 0.50638,-1.1768 0.69801,-1.14566 z m 8.99261,0.36798 c 0.0586,0.0219 0.12233,0.1138 0.18967,0.28072 0.26941,0.66767 0.26941,1.76021 0,2.42788 -0.2694,0.66766 -0.48936,0.12139 -0.48936,-1.21394 0,-1.0015 0.12404,-1.5601 0.29969,-1.49466 z m -48.90646,0.29969 c 0.0502,0.0101 0.10585,0.0452 0.16691,0.10621 0.46858,0.46858 0.69585,2.10599 0.50454,3.63992 -0.3202,2.56735 -0.38759,2.49995 -0.85165,-0.85165 -0.25292,-1.82675 -0.17151,-2.96547 0.1802,-2.89448 z m -79.25298,1.51742 c 0.754204,0 1.147616,0.3648 0.872519,0.80992 -0.275088,0.44511 -0.668491,0.80993 -0.872519,0.80993 -0.20401,0 -0.595528,-0.36482 -0.870616,-0.80993 -0.275097,-0.44512 0.116421,-0.80992 0.870616,-0.80992 z m 122.33254,0.12519 c 0.0586,0.0218 0.12233,0.1138 0.18968,0.28072 0.26941,0.66767 0.26941,1.76021 0,2.42787 -0.26941,0.66767 -0.48936,0.1214 -0.48936,-1.21393 0,-1.0015 0.12403,-1.5601 0.29968,-1.49466 z m -40.8243,0.32435 c 0.0754,-0.0407 0.16374,0.10468 0.25606,0.45902 0.24618,0.9449 0.22998,2.25595 -0.036,2.91345 -0.26603,0.65749 -0.46745,-0.11419 -0.44764,-1.71659 0.0123,-1.00149 0.10199,-1.58813 0.22761,-1.65588 z m 2.43356,0.0683 c 0.17512,0.01 0.37971,0.12364 0.61266,0.35659 0.30252,0.30251 0.39747,2.23203 0.21055,4.28862 l -0.33952,3.74044 -0.81183,-3.68734 c -0.61893,-2.80932 -0.43071,-4.7396 0.32814,-4.69831 z m 29.15345,0.13088 c 0.7909,0 1.69917,3.38898 2.31407,8.63981 0.22998,1.96382 -1.92163,2.40924 -2.63652,0.54627 -0.94543,-2.46374 -0.7093,-9.18608 0.32245,-9.18608 z m -11.68983,0.1195 c 0.33737,0.0139 0.62771,0.10229 0.78906,0.26365 0.3227,0.3227 -0.25089,0.55238 -1.27464,0.51023 -1.13134,-0.0466 -1.36271,-0.2761 -0.588,-0.58611 0.35053,-0.14028 0.73621,-0.20167 1.07358,-0.18777 z m 155.08797,0.21433 c 0.11608,0.0195 0.24205,0.0692 0.37555,0.15174 0.53415,0.33012 0.97116,0.79251 0.97115,1.02805 10e-6,0.23555 -0.437,0.42868 -0.97115,0.42868 -0.53413,0 -0.97115,-0.46241 -0.97115,-1.02806 0,-0.42424 0.24735,-0.63896 0.5956,-0.58041 z m -167.76032,0.63732 c 0.7511,0 2.03153,5.28031 2.05989,8.49755 0.0116,1.30927 -1.20654,1.61398 -2.25527,0.56524 -0.96099,-0.96099 -0.78647,-9.06279 0.19538,-9.06279 z m -97.958987,0.1119 c 0.792098,0 1.584187,0.0569 2.185085,0.17262 1.201797,0.23147 0.218509,0.42108 -2.185085,0.42108 -2.403594,0 -3.386883,-0.18961 -2.185086,-0.42108 0.600899,-0.11575 1.393007,-0.17262 2.185086,-0.17262 z m 116.634627,0.0929 c 0.91758,0.0618 1.42527,1.7024 2.29131,6.83598 0.54349,3.22153 0.38571,3.64181 -1.37137,3.64181 -1.64564,0 -2.01129,-0.66623 -2.13197,-3.8846 -0.0801,-2.13653 -0.18938,-4.39571 -0.24279,-5.01887 -0.0534,-0.62314 0.4114,-1.30239 1.03374,-1.50983 0.15003,-0.05 0.29001,-0.0733 0.42108,-0.0645 z m -67.62384,0.24279 c 0.0586,0.0218 0.12232,0.1138 0.18967,0.28072 0.26941,0.66767 0.26941,1.76021 0,2.42787 -0.2694,0.66767 -0.48936,0.1214 -0.48936,-1.21393 0,-1.0015 0.12404,-1.56011 0.29969,-1.49466 z m 54.90217,0.52351 c 0.53414,0 0.97115,0.8194 0.97115,1.8209 0,1.0015 0.27314,3.18659 0.60696,4.85575 0.4806,2.40297 0.27843,3.03484 -0.97115,3.03484 -1.24629,0 -1.57811,-1.02095 -1.57811,-4.85575 0,-2.67066 0.43701,-4.85574 0.97115,-4.85574 z m 6.31247,0 c 0.8012,0 1.46227,0.76478 1.4681,1.69951 0.006,0.93473 0.28159,3.33832 0.61266,5.34132 0.53839,3.25724 0.38275,3.64181 -1.46811,3.64181 -1.86088,0 -2.06938,-0.53811 -2.06938,-5.34132 0,-4.10041 0.33843,-5.34132 1.45673,-5.34132 z m 115.02427,0 c 0.56566,0 1.02805,0.43701 1.02805,0.97115 10e-6,0.53413 -0.19123,0.97115 -0.42677,0.97115 -0.23555,0 -0.69981,-0.43702 -1.02995,-0.97115 -0.33011,-0.53414 -0.13699,-0.97115 0.42867,-0.97115 z M 92.277117,249.2496 c -0.165299,-0.01 -0.394374,0.01 -0.688525,0.0531 -0.876424,0.12863 -2.083504,0.72351 -2.682042,1.32205 -0.803568,0.80359 -0.67019,1.02624 0.506435,0.85355 0.876423,-0.12864 2.081609,-0.72351 2.680148,-1.32205 0.602678,-0.60269 0.679878,-0.87899 0.183984,-0.90666 z m 131.129783,0.038 c 0.35597,0.14917 0.62594,1.57784 0.62594,3.47488 0,2.16806 -0.17073,3.94151 -0.37935,3.94151 -0.77773,0 -1.15446,-6.93625 -0.40212,-7.40123 0.0538,-0.0332 0.10468,-0.0365 0.15553,-0.0151 z m -50.34232,0.18588 c 0.0586,0.005 0.12561,0.22721 0.19538,0.68853 0.22327,1.4762 0.21722,3.66129 -0.0133,4.85574 -0.23051,1.19446 -0.41271,-0.0133 -0.40591,-2.68393 0.005,-1.83609 0.0951,-2.87203 0.22382,-2.86034 z m -93.975746,0.50075 c 1.735939,-0.0376 3.156235,0.10306 3.156235,0.31297 0,0.91699 -2.591036,1.22743 -4.370172,0.52351 -1.581662,-0.62581 -1.356268,-0.78093 1.213937,-0.83648 z m 118.169126,0.7037 c 0.0754,-0.0407 0.16373,0.10468 0.25606,0.45902 0.24617,0.9449 0.22998,2.25596 -0.036,2.91345 -0.26604,0.6575 -0.46745,-0.11419 -0.44764,-1.71658 0.0123,-1.0015 0.10199,-1.58813 0.22761,-1.65589 z m 21.16043,2.57393 c 0.46939,0.0725 0.7587,1.48912 0.7587,3.822 0,2.4036 -0.43699,4.64134 -0.97115,4.97145 -0.59247,0.36617 -0.97115,-1.10463 -0.97115,-3.77079 0,-2.40359 0.43702,-4.63944 0.97115,-4.96955 0.0741,-0.0457 0.14539,-0.0635 0.21245,-0.0531 z m 92.61386,0.008 c 0.0751,-0.0152 0.16995,-0.0152 0.28452,0.002 0.15276,0.0227 0.33969,0.0745 0.55575,0.15743 0.82895,0.3181 1.50604,0.75174 1.50604,0.96166 1e-5,0.78654 -1.84996,0.34428 -2.42028,-0.57851 -0.19138,-0.30967 -0.15111,-0.49682 0.074,-0.54249 z m -132.14647,0.38126 c 0.0531,0.0306 0.11155,0.15895 0.17262,0.39263 0.24426,0.93474 0.24426,2.4643 0,3.39903 -0.24428,0.93473 -0.44385,0.16995 -0.44385,-1.69951 0,-1.4021 0.11198,-2.18376 0.27123,-2.09215 z m -16.09224,0.14985 c 0.50261,0 1.18351,0.43701 1.51363,0.97115 0.33012,0.53413 -0.0796,0.97115 -0.91235,0.97115 -0.83272,0 -1.51553,-0.43702 -1.51553,-0.97115 1e-5,-0.53414 0.41164,-0.97115 0.91425,-0.97115 z m 143.29572,0.97115 c 0.25227,0 1.58821,2.22872 2.96845,4.95248 1.38024,2.72377 2.34618,5.11384 2.14715,5.31286 -0.19903,0.19903 -1.53308,-2.02968 -2.96655,-4.95248 -1.43348,-2.9228 -2.40132,-5.31286 -2.14905,-5.31286 z m -121.45624,0.77198 c 0.0754,-0.0407 0.16373,0.10468 0.25606,0.45903 0.24618,0.94489 0.22998,2.25595 -0.036,2.91344 -0.26604,0.6575 -0.46745,-0.11419 -0.44764,-1.71658 0.0123,-1.0015 0.10199,-1.58813 0.22761,-1.65589 z m 6.79804,0 c 0.0754,-0.0407 0.16374,0.10468 0.25606,0.45903 0.24618,0.94489 0.22998,2.25595 -0.036,2.91344 -0.26603,0.6575 -0.46745,-0.11419 -0.44764,-1.71658 0.0123,-1.0015 0.10199,-1.58813 0.22761,-1.65589 z m -25.17021,0.30538 c 0.26767,-0.0696 0.14913,0.60417 -0.37746,2.02765 -0.4344,1.1743 -1.33706,2.31845 -2.00678,2.54168 -0.78175,0.26059 -0.62312,-0.50448 0.44573,-2.13577 1.01616,-1.55083 1.67084,-2.36392 1.93851,-2.43356 z m 47.36628,0.30159 c 0.41654,0.0914 0.67126,1.49582 0.50834,4.37017 -0.19561,3.45123 -0.76944,5.41998 -1.66347,5.71499 -1.10164,0.3635 -1.23974,-0.45444 -0.71889,-4.25447 0.53381,-3.8945 1.33847,-5.94814 1.87402,-5.83069 z m 2.16801,0.13088 c 0.0586,0.005 0.12561,0.22721 0.19538,0.68853 0.22328,1.4762 0.21723,3.66129 -0.0133,4.85574 -0.23051,1.19446 -0.4127,-0.0133 -0.40591,-2.68393 0.005,-1.83609 0.0951,-2.87203 0.22382,-2.86034 z m 101.78857,0.85545 c 0.42124,0.019 1.50076,0.84211 2.59669,2.00867 1.2525,1.33323 2.09308,2.40964 1.86643,2.39184 -0.9423,-0.0739 -5.02208,-3.93828 -4.60158,-4.35879 0.0315,-0.0315 0.0783,-0.0445 0.13846,-0.0418 z m 15.03574,0.18398 c 0.4975,0.0104 0.83079,0.35909 0.83079,0.9427 0,0.75027 -0.0371,1.35637 -0.0816,1.3486 -0.0445,-0.008 -0.66461,-0.38487 -1.37706,-0.83647 -1.06606,-0.67576 -1.05104,-0.91398 0.0816,-1.34861 0.19627,-0.0754 0.38046,-0.10968 0.54627,-0.10622 z m -164.13179,0.55766 c 0.10178,-0.002 0.16123,0.0918 0.16123,0.2921 0,0.53413 -0.4249,1.62667 -0.9427,2.42787 -0.51778,0.8012 -0.94079,1.01971 -0.94079,0.48558 0,-0.53414 0.42301,-1.62668 0.94079,-2.42788 0.32362,-0.50075 0.61186,-0.77364 0.78147,-0.77767 z m 38.95029,1.29169 c 0.83934,-0.0939 1.0565,0.9412 1.0565,4.25258 0,2.99867 -0.52856,5.14574 -1.45672,5.91604 -1.26492,1.0498 -1.45673,0.50283 -1.45673,-4.14825 0,-3.8653 0.40552,-5.51075 1.45673,-5.91414 0.14643,-0.0562 0.28032,-0.0928 0.40022,-0.10623 z m -36.97384,0.055 c 0.0925,-0.002 0.21593,0.0737 0.36797,0.22571 0.51787,0.5179 0.76971,1.75128 0.55955,2.74274 -0.28301,1.33516 -0.52828,1.09178 -0.9427,-0.9408 -0.27098,-1.32913 -0.26249,-2.02152 0.0152,-2.02765 z m 2.45253,0.73784 c 0.0883,0.0134 0.19291,0.16281 0.30917,0.45333 0.28058,0.70105 0.24683,1.53803 -0.0759,1.86073 -0.3227,0.32271 -0.55238,-0.25088 -0.51023,-1.27463 0.0291,-0.70708 0.12974,-1.06172 0.27694,-1.03943 z m 166.44206,0.27503 c 0.50205,0.21036 0.55472,2.02193 0.1764,5.67706 -0.73707,7.12121 -1.08268,7.8184 -4.84626,9.76459 -4.36459,2.25703 -7.71541,3.39787 -7.68763,2.61756 0.0138,-0.38738 1.77071,-1.50981 3.90546,-2.49426 4.4587,-2.05616 6.79036,-5.83043 7.01048,-11.35031 0.0834,-2.09217 0.62251,-3.98592 1.19877,-4.20705 0.0901,-0.0346 0.17106,-0.0377 0.24278,-0.008 z m -151.33804,0.47989 c 0.33737,0.0139 0.62771,0.10229 0.78906,0.26365 0.3227,0.3227 -0.25089,0.55238 -1.27464,0.51023 -1.13134,-0.0466 -1.36271,-0.2761 -0.588,-0.58611 0.35053,-0.14028 0.73621,-0.20166 1.07358,-0.18777 z m -12.85066,0.0455 c 0.86685,-0.0316 2.10209,2.26799 2.52272,4.93351 0.31609,2.003 0.21745,3.64181 -0.21813,3.64181 -0.70962,0 -3.18944,-7.87444 -2.6498,-8.41409 0.1054,-0.1054 0.22138,-0.15672 0.34521,-0.16123 z m -6.03364,0.32625 c 0.10624,0.0455 0.20684,0.32441 0.31297,0.8251 0.21016,0.99146 -0.0417,2.22673 -0.55954,2.74463 -0.60809,0.60807 -0.74448,-0.0298 -0.38316,-1.80194 0.25901,-1.27036 0.45267,-1.84357 0.62973,-1.76779 z m 32.47849,0.0247 c 0.84608,-0.0762 1.05271,1.07422 1.05271,4.85575 0,4.07332 -0.33945,5.31097 -1.45673,5.31097 -1.09638,0 -1.45672,-1.17499 -1.45672,-4.75142 0,-3.32799 0.43651,-4.91948 1.45672,-5.31097 0.14819,-0.0568 0.28315,-0.0934 0.40402,-0.10433 z m 2.52841,1.04513 c 0.0573,-0.0341 0.12203,0.16501 0.19157,0.62404 0.22252,1.46886 0.22252,3.87245 0,5.34132 -0.22251,1.46886 -0.40401,0.26706 -0.40401,-2.67066 0,-2.01969 0.0863,-3.21975 0.21244,-3.2947 z m -22.39903,0.38125 c 0.8254,0 1.50034,0.6009 1.50034,1.33533 0,0.73443 0.27315,2.70101 0.60697,4.37017 0.37613,1.88063 0.21473,3.03484 -0.42677,3.03484 -1.36566,0 -1.74087,-0.75506 -2.52461,-5.09853 -0.52701,-2.92068 -0.35951,-3.64181 0.84407,-3.64181 z m 13.63971,0 c 1.10064,0 1.45672,1.18696 1.45672,4.85575 0,3.66878 -0.35608,4.85574 -1.45672,4.85574 -1.10063,0 -1.45673,-1.18696 -1.45673,-4.85574 0,-3.66879 0.3561,-4.85575 1.45673,-4.85575 z m -8.36098,0.0721 c 0.29827,-0.0257 0.69915,0.0165 1.22531,0.091 1.97584,0.27971 2.31929,0.9375 2.57582,4.9354 0.22897,3.56829 -0.0302,4.61296 -1.14755,4.61296 -1.47406,0 -1.90398,-0.93479 -3.0538,-6.63492 -0.452,-2.24066 -0.4946,-2.9272 0.40022,-3.00449 z m 22.96616,0.15174 c 0.0503,0.0392 0.10525,0.20409 0.16312,0.50454 0.23149,1.2018 0.23149,3.16838 0,4.37017 -0.23147,1.2018 -0.42109,0.21851 -0.42109,-2.18508 0,-1.8027 0.10704,-2.80742 0.25797,-2.68963 z m -31.24559,0.11191 c 0.0883,0.0134 0.19292,0.16281 0.30918,0.45333 0.28057,0.70104 0.24682,1.53803 -0.0758,1.86073 -0.3227,0.3227 -0.55238,-0.25089 -0.51023,-1.27463 0.0291,-0.70709 0.12973,-1.06172 0.27693,-1.03943 z m 5.8269,0 c 0.0883,0.0134 0.19291,0.16281 0.30917,0.45333 0.28058,0.70104 0.24683,1.53803 -0.0759,1.86073 -0.3227,0.3227 -0.55238,-0.25089 -0.51023,-1.27463 0.0291,-0.70709 0.12974,-1.06172 0.27694,-1.03943 z m 13.75731,0.57662 c 0.0564,-3e-4 0.12023,0.25876 0.18778,0.80423 0.21613,1.7455 0.2121,4.3676 -0.01,5.8269 -0.22159,1.4593 -0.39846,0.0315 -0.39263,-3.17331 0.004,-2.20329 0.0901,-3.45714 0.21434,-3.45782 z m 124.76231,0.0588 c 0.0501,-0.0501 0.4438,0.24197 1.21394,0.84596 0.93473,0.73307 1.69951,1.49785 1.69951,1.69951 1e-5,0.79929 -0.79691,0.28616 -2.06559,-1.33153 -0.60398,-0.77015 -0.89798,-1.16382 -0.84786,-1.21394 z m -46.8826,1.10582 c -1.44992,0.15053 -0.40005,5.88894 3.15245,17.24928 1.71297,5.4778 2.96506,10.1044 2.78446,10.28052 -0.1806,0.17613 -6.00935,2.36509 -12.95309,4.86523 -14.43956,5.19908 -33.13897,12.90578 -41.72147,17.19427 -7.84997,3.92246 -21.5094,13.01602 -23.22033,15.45873 -1.25128,1.78645 -1.73077,1.85982 -5.27304,0.79853 -2.91231,-0.87251 -4.67957,-0.89451 -6.9953,-0.0872 -2.94235,1.02571 -3.31012,0.86659 -7.33484,-3.15813 -2.33095,-2.33094 -7.86184,-6.31747 -12.2892,-8.85794 -4.42736,-2.54049 -10.94705,-6.29488 -14.48947,-8.34391 -8.23342,-4.76242 -14.55732,-10.92584 -17.96626,-17.51104 -2.32597,-4.49316 -2.69874,-6.36189 -2.73895,-13.72317 -0.0378,-6.9208 -0.31199,-8.46974 -1.46051,-8.24908 -1.92142,0.36915 -2.74523,3.81826 -2.86035,11.98572 -0.22402,15.89325 5.3338,22.54408 30.64432,36.67417 12.63271,7.05246 20.89474,13.2841 24.77757,18.69082 2.74517,3.82259 3.49627,4.29051 6.89858,4.29051 3.19553,0 4.5541,-0.7048 8.33254,-4.32275 14.49774,-13.88197 30.04932,-21.75967 67.15344,-34.01109 9.34731,-3.08639 17.4108,-5.99234 17.91694,-6.45852 1.68853,-1.55521 -9.45688,-31.86066 -12.03314,-32.71937 -0.11887,-0.0396 -0.22768,-0.0555 -0.32435,-0.0455 z m -102.31966,0.20106 c 0.0883,0.0134 0.19291,0.16281 0.30917,0.45333 0.28058,0.70104 0.24683,1.53803 -0.0758,1.86073 -0.3227,0.3227 -0.55238,-0.25089 -0.51023,-1.27463 0.0291,-0.70709 0.12974,-1.06172 0.27693,-1.03943 z m 168.0088,0 c 0.0883,0.0134 0.19292,0.16281 0.30917,0.45333 0.28058,0.70104 0.24683,1.53803 -0.0758,1.86073 -0.32271,0.3227 -0.55238,-0.25089 -0.51024,-1.27463 0.0291,-0.70709 0.12974,-1.06172 0.27694,-1.03943 z m -175.91836,0.69042 c 0.0607,-0.0607 0.48402,0.33532 1.32015,1.13617 0.96264,0.92202 1.53961,1.88408 1.28412,2.13957 -0.25549,0.25549 -1.04168,-0.49925 -1.74882,-1.67676 -0.61421,-1.02276 -0.91611,-1.53833 -0.85545,-1.59898 z m 26.36139,1.25187 c 0.0883,0.0134 0.19292,0.16282 0.30917,0.45334 0.28058,0.70104 0.24683,1.53803 -0.0758,1.86073 -0.32271,0.3227 -0.55238,-0.25089 -0.51023,-1.27463 0.0291,-0.70709 0.12973,-1.06172 0.27693,-1.03944 z m -12.62494,0.97115 c 0.0883,0.0134 0.19292,0.16282 0.30918,0.45334 0.28057,0.70104 0.24682,1.53802 -0.0759,1.86073 -0.3227,0.3227 -0.55238,-0.25089 -0.51023,-1.27464 0.0291,-0.70708 0.12973,-1.06171 0.27693,-1.03943 z m 5.92553,0.11192 c 0.0586,0.0218 0.12232,0.1138 0.18967,0.28072 0.26941,0.66766 0.26941,1.76021 0,2.42787 -0.26941,0.66767 -0.48936,0.1214 -0.48936,-1.21393 0,-1.0015 0.12403,-1.56011 0.29969,-1.49466 z m 147.08167,2.5853 c 0.33738,0.0139 0.62771,0.1023 0.78906,0.26365 0.3227,0.32271 -0.25089,0.55238 -1.27463,0.51023 -1.13134,-0.0466 -1.36272,-0.27609 -0.58801,-0.5861 0.35053,-0.14029 0.73621,-0.20167 1.07358,-0.18778 z m -281.384769,0.0892 c 0.311282,0.0129 0.600607,0.17003 0.897176,0.4666 0.714873,0.71488 0.766121,1.63731 0.151742,2.73516 -0.861992,1.54028 -0.971955,1.54273 -1.551556,0.0322 -0.364754,-0.95056 -1.129388,-1.34095 -1.843668,-0.9408 -0.671434,0.37616 -0.458616,-0.12253 0.472299,-1.10962 0.775559,-0.82236 1.355209,-1.20505 1.874007,-1.18358 z m -0.225715,0.7625 c -0.565655,0 -0.758788,0.43702 -0.428675,0.97115 0.330113,0.53413 0.79441,0.97115 1.029952,0.97115 0.235543,0 0.426772,-0.43702 0.426772,-0.97115 0,-0.53413 -0.462393,-0.97115 -1.028049,-0.97115 z m 278.410624,0.37746 c 0.11798,-0.004 0.24744,0.0337 0.38315,0.1176 0.54284,0.33549 0.73409,1.0164 0.42678,1.51363 -0.8325,1.34702 -1.41498,1.09698 -1.415,-0.60887 0,-0.62457 0.25115,-1.01045 0.60507,-1.02236 z m -139.55907,1.68434 c 0.33738,0.0139 0.62772,0.10229 0.78906,0.26365 0.32271,0.3227 -0.25088,0.55238 -1.27463,0.51023 -1.13134,-0.0466 -1.36272,-0.2761 -0.588,-0.58611 0.35053,-0.14028 0.73621,-0.20167 1.07357,-0.18777 z m 5.8269,0 c 0.33738,0.0139 0.62771,0.10229 0.78906,0.26365 0.3227,0.3227 -0.25089,0.55238 -1.27463,0.51023 -1.13134,-0.0466 -1.36272,-0.2761 -0.58801,-0.58611 0.35053,-0.14028 0.73621,-0.20167 1.07358,-0.18777 z m -146.46901,0.87062 c 0.07274,-0.006 0.343427,0.40587 0.872519,1.23101 0.612261,0.95485 0.898129,2.2659 0.635423,2.91344 -0.344738,0.84974 -0.49851,0.86246 -0.553866,0.0436 -0.04215,-0.62398 -0.328015,-1.93504 -0.635413,-2.91345 -0.265638,-0.84549 -0.391373,-1.26902 -0.318663,-1.27463 z m 293.60949,3.66646 c 0.0754,-0.0407 0.16373,0.10468 0.25606,0.45903 0.24618,0.9449 0.22997,2.25595 -0.036,2.91345 -0.26604,0.65749 -0.46745,-0.11419 -0.44764,-1.71659 0.0123,-1.0015 0.10199,-1.58813 0.22761,-1.65589 z m -301.414723,1.17032 c 0.565656,0 0.756895,0.43701 0.426772,0.97115 -0.330103,0.53413 -0.792506,0.97115 -1.028049,0.97115 -0.235542,0 -0.428675,-0.43702 -0.428675,-0.97115 0,-0.53414 0.464297,-0.97115 1.029952,-0.97115 z m 295.955803,0.26175 c 0.94517,-0.0903 1.17122,2.29225 1.21583,11.5305 0.0319,6.60027 0.4216,14.18599 0.86683,16.85665 0.57828,3.46877 0.43702,5.75991 -0.49696,8.02146 -2.17619,5.26946 -8.33761,13.92827 -14.75312,20.73555 -6.47566,6.87112 -7.211,8.18485 -4.12739,7.37846 1.06828,-0.27932 1.9423,-0.37294 1.9423,-0.20865 0,0.16431 -1.43602,1.14698 -3.19226,2.1832 l -3.19418,1.88349 5.10044,-32.13707 c 2.80516,-17.67507 5.12415,-33.00921 5.15163,-34.07747 0.0397,-1.54216 0.23077,-1.65602 0.92942,-0.55196 0.85103,1.34481 4.03156,0.86368 10.36019,-1.56484 0.0695,-0.0267 0.13426,-0.0433 0.19727,-0.0493 z m -269.977563,1.68055 c 0.267066,0 -0.30597,0.87403 -1.272739,1.94229 -0.96676,1.06827 -1.97492,1.9423 -2.241986,1.9423 -0.267066,0 0.304077,-0.87403 1.270836,-1.9423 0.96677,-1.06826 1.976823,-1.94229 2.243889,-1.94229 z m 23.214641,0.57661 c 4.624083,0.0444 6.642553,0.51219 9.017263,1.90626 3.117329,1.83 7.806239,8.31251 7.687639,10.62764 -0.0274,0.53413 -0.52433,-0.0121 -1.10393,-1.21394 -0.57961,-1.20179 -1.4234,-2.18508 -1.87591,-2.18508 -0.45251,0 -0.8232,-0.6636 -0.8232,-1.4738 0,-1.18567 -0.94345,-0.99513 -4.838669,0.97873 -4.94618,2.50642 -15.54515,5.68359 -16.33314,4.89559 -0.240573,-0.24057 1.170536,-1.3862 3.135374,-2.54548 2.603962,-1.53638 3.491796,-2.66637 3.277629,-4.16721 -0.230299,-1.61392 -0.923825,-2.0291 -3.207453,-1.91954 -5.737229,0.27526 -11.703581,2.44675 -14.711385,5.35269 -2.330574,2.25167 -3.575344,2.79303 -5.22183,2.27045 -1.468737,-0.46617 -1.948174,-0.3419 -1.496551,0.38884 0.365473,0.59135 0.0941,1.08287 -0.605074,1.09064 -0.997837,0.0117 -0.984124,0.19576 0.06643,0.86114 0.736131,0.46624 1.038605,1.33235 0.673356,1.92333 -0.365239,0.59097 -1.527695,1.53662 -2.583412,2.10163 -1.747874,0.93543 -1.863771,0.7844 -1.303078,-1.69382 0.863264,-3.81563 5.401658,-10.0851 9.178495,-12.67805 4.520593,-3.10359 9.972488,-4.40526 18.916539,-4.51432 0.77555,-0.01 1.490364,-0.012 2.15095,-0.006 z m -38.787163,0.58801 c 0.139263,-0.0492 0.09995,0.26634 -0.117606,0.94838 -0.285703,0.89567 0.08362,2.13051 0.821301,2.74274 0.737684,0.61223 1.07512,1.84516 0.749231,2.74084 -0.493101,1.35527 -0.197201,1.30345 1.758314,-0.31297 l 2.3482,-1.94229 -1.828489,2.16232 c -1.006111,1.1892 -2.170072,1.94972 -2.5872,1.69192 -0.417128,-0.2578 -1.655586,0.98352 -2.752217,2.75791 -1.096641,1.77441 -2.882555,4.0308 -3.968057,5.01318 -1.085512,0.98238 -1.97455,2.51964 -1.97455,3.4161 9e-6,1.75678 -2.61716,2.24459 -3.590591,0.66955 -0.349614,-0.56568 -0.0909,-0.64757 0.631626,-0.20105 0.896827,0.55427 1.054308,0.21573 0.586107,-1.25946 -0.650155,-2.04846 0.994409,-6.09111 4.512426,-11.09424 1.508573,-2.1454 2.228855,-2.48217 3.666466,-1.71279 1.442759,0.77215 1.733162,0.6319 1.504145,-0.72836 -0.15619,-0.92767 -0.81896,-1.56159 -1.471902,-1.40931 -0.652933,0.15227 -1.727451,-0.17253 -2.388037,-0.72077 -1.219511,-1.0121 -2.479072,-0.42919 -2.479091,1.14755 0,0.47664 0.546271,0.55304 1.213936,0.16882 0.705297,-0.40588 0.876103,-0.32776 0.405912,0.18587 -0.445117,0.48624 -1.283966,0.8839 -1.862635,0.8839 -0.57864,0 -1.253006,0.60659 -1.500348,1.34861 -0.307583,0.92276 -0.0269,1.1039 0.889592,0.57282 0.736956,-0.42707 1.000264,-0.40218 0.584204,0.055 -0.416059,0.45718 -1.389986,0.92418 -2.162321,1.03754 -1.218453,0.17882 -1.214345,-0.24818 0.02845,-3.22263 0.787796,-1.88546 1.432057,-3.5421 1.432057,-3.68163 0,-0.77122 3.865766,-1.09333 4.965767,-0.4135 0.766081,0.47347 1.641533,0.32699 2.141452,-0.36039 0.212497,-0.29216 0.360286,-0.45411 0.443854,-0.48367 z m 239.234615,4.67934 c -1.18499,0.12014 -0.42665,2.54652 2.75032,10.18 2.16351,5.19839 3.93392,9.56275 3.93391,9.69821 0,0.13547 -2.56109,0.74967 -5.69221,1.36568 -12.88559,2.53509 -38.00948,12.00098 -38.0095,14.32065 0,1.56838 -0.6063,1.54512 9.71149,0.34901 4.54014,-0.52634 10.3757,-0.67875 12.96637,-0.33952 l 4.70969,0.61645 -11.24978,3.69303 c -18.94011,6.21643 -33.68678,13.91455 -42.87281,22.38194 -2.38812,2.20129 -4.34171,4.60246 -4.34173,5.33563 1e-5,0.73317 0.29182,1.33344 0.6468,1.33344 0.35499,0 4.84896,-2.82524 9.98653,-6.27833 15.07028,-10.12914 33.97982,-17.73915 56.86154,-22.8808 14.59705,-3.28004 14.75922,-4.42368 1.11151,-7.87731 -10.77297,-2.72617 -10.69017,-2.77121 11.81691,-6.27643 1.83367,-0.28558 3.08636,-0.99735 2.91345,-1.65778 -0.72524,-2.77 -12.91841,-23.25402 -14.1158,-23.7135 -0.47461,-0.18212 -0.85323,-0.27809 -1.12669,-0.25037 z m -205.811536,0.0948 c 0.903207,-0.062 1.936219,0.36203 2.295097,0.9427 0.358879,0.58068 0.140486,1.56397 -0.485575,2.18509 -0.867634,0.86078 -0.991834,0.74698 -0.523507,-0.48368 0.410233,-1.07801 0.02525,-1.76749 -1.157037,-2.07318 -1.518586,-0.39265 -1.537261,-0.4743 -0.128978,-0.57093 z m -24.78327,2.4089 c 0.518458,0.0188 -0.659265,2.27913 -2.76929,5.27115 -3.546685,5.02918 -5.652399,7.01175 -5.652399,5.32045 0,-1.16617 6.984524,-10.06234 8.294604,-10.56504 0.04982,-0.0191 0.09255,-0.0278 0.127085,-0.0265 z m 280.462936,2.78258 c 0.0586,0.0218 0.12232,0.1138 0.18967,0.28072 0.26941,0.66766 0.26941,1.76021 0,2.42787 -0.2694,0.66767 -0.48936,0.1214 -0.48936,-1.21393 0,-1.0015 0.12404,-1.56011 0.29969,-1.49466 z m -266.548195,0.52351 c 0.05011,0.0501 -0.241961,0.44378 -0.845958,1.21393 -1.26868,1.61769 -2.067489,2.13083 -2.067489,1.33154 0,-0.20166 0.76478,-0.96644 1.699511,-1.69952 0.77015,-0.60398 1.163815,-0.89608 1.213936,-0.84595 z M 285.9436,292.9727 c 0.26563,0.0304 0.23637,0.40932 0.0873,1.15704 -0.23865,1.19662 -5.67278,3.48256 -19.75302,8.31356 -10.68265,3.66526 -19.64148,6.64324 -19.90856,6.61595 -1.08983,-0.11136 8.81057,-4.10907 21.72378,-8.77069 7.54766,-2.72467 14.74618,-5.59717 15.9955,-6.38264 1.02893,-0.64691 1.58945,-0.96365 1.85505,-0.93322 z m 30.80174,1.08307 c 0.0586,0.0219 0.12233,0.1138 0.18968,0.28072 0.2694,0.66766 0.2694,1.76021 0,2.42787 -0.26941,0.66767 -0.48937,0.12139 -0.48937,-1.21394 0,-1.00149 0.12404,-1.5601 0.29969,-1.49465 z m -213.39105,0.0778 c 0.4626,0.0632 0.76976,0.55948 1.2936,1.53829 0.60745,1.13505 2.15287,5.14697 3.43505,8.91674 l 2.33114,6.85494 -2.1149,2.24958 c -1.16275,1.23769 -2.3742,2.25148 -2.69342,2.25148 -0.31922,0 -1.11267,-2.81068 -1.764,-6.24419 -0.65133,-3.43351 -2.07335,-7.74583 -3.15813,-9.58441 l -1.972649,-3.34402 2.416489,-1.58191 c 1.14559,-0.75061 1.76422,-1.11974 2.22682,-1.0565 z m -26.998707,0.9389 c 0.05273,0.002 0.09634,0.0128 0.130882,0.0342 0.523537,0.32356 -1.306186,2.63159 -4.066687,5.12888 -5.524334,4.99759 -6.047608,5.33683 -6.906162,4.47829 -0.851951,-0.85197 9.20829,-9.70901 10.841967,-9.64132 z m -37.484075,0.84786 c 0.262482,0.007 0.292345,0.38745 0.0436,1.03564 -0.645611,1.68244 -1.342925,1.99062 -1.342925,0.59369 0,-0.50261 0.431763,-1.18161 0.959777,-1.50793 0.137622,-0.0851 0.252023,-0.1236 0.339524,-0.1214 z m 54.369173,2.74084 c 0.20019,0.0254 0.48805,0.21492 0.83648,0.56334 0.63209,0.63207 0.92467,1.37424 0.6487,1.6502 -0.64814,0.64814 -1.79813,-0.49998 -1.79815,-1.79625 1e-5,-0.30426 0.11278,-0.44267 0.31297,-0.41729 z m -5.288208,0.0834 c 1.574573,0.0315 2.115144,0.39975 2.429767,1.21963 0.858962,2.23841 0.795798,2.37814 -1.09634,2.42407 -3.187739,0.0773 -15.049287,4.62273 -16.904055,6.4775 -1.652323,1.65231 -1.735648,2.38369 -0.779581,6.84167 0.588663,2.7448 0.919446,6.21517 0.734053,7.71228 -0.239116,1.93083 -0.683427,0.86388 -1.526908,-3.67025 -1.929033,-10.3696 -1.694996,-11.65447 2.938105,-16.11501 3.637584,-3.5021 4.833467,-4.04879 10.079469,-4.60726 1.863762,-0.19842 3.180747,-0.3015 4.12549,-0.28263 z m -12.611663,0.73405 c 0.07633,0.018 0.106234,0.10227 0.106215,0.23899 0,0.15586 -2.075812,2.2317 -4.612959,4.61296 l -4.612958,4.33035 4.330344,-4.61296 c 3.26983,-3.48386 4.458546,-4.64712 4.789358,-4.56934 z m 242.27705,1.26326 c 0.0883,0.0134 0.19292,0.16281 0.30917,0.45333 0.28058,0.70104 0.24683,1.53803 -0.0758,1.86073 -0.32271,0.3227 -0.55238,-0.25089 -0.51023,-1.27463 0.0291,-0.70709 0.12973,-1.06172 0.27693,-1.03943 z m -1.84367,0.11191 c 0.0586,0.0219 0.12233,0.1138 0.18968,0.28072 0.2694,0.66767 0.2694,1.76021 0,2.42787 -0.26941,0.66767 -0.48937,0.1214 -0.48937,-1.21393 0,-1.0015 0.12404,-1.5601 0.29969,-1.49466 z m -266.362305,0.59179 c 0.903208,-0.0376 1.911872,0.36874 2.241985,0.90287 0.690157,1.1167 0.65641,1.1167 -1.942298,0 -1.583371,-0.6804 -1.638406,-0.84722 -0.299687,-0.90287 z m 6.966859,0.26745 c 0.08828,0.0134 0.192919,0.16281 0.309175,0.45333 0.280575,0.70104 0.246827,1.53803 -0.07585,1.86073 -0.322713,0.3227 -0.55238,-0.25089 -0.510232,-1.27463 0.02914,-0.70709 0.129736,-1.06172 0.276933,-1.03943 z m -9.095045,0.63542 c 0.04079,0.0402 -0.37667,0.53804 -1.213936,1.53259 -2.106782,2.50254 -2.228613,4.00023 -0.187772,2.30648 0.831343,-0.68995 1.399455,-0.85329 1.261348,-0.36228 -0.138107,0.49101 0.711056,2.73214 1.887292,4.98093 2.77468,5.30477 2.704088,6.09891 -0.235192,2.67824 -1.304914,-1.51861 -2.109735,-3.18227 -1.790557,-3.69871 0.345933,-0.55974 0.05924,-0.61803 -0.707501,-0.14415 -0.905208,0.55945 -1.119182,0.36332 -0.726468,-0.66008 0.332375,-0.86613 0.0068,-1.45483 -0.806122,-1.45483 -0.750271,0 -1.365688,0.14202 -1.365688,0.31487 0,0.17286 1.966586,3.1867 4.370171,6.69751 2.403604,3.51081 4.370171,6.79273 4.370171,7.29311 0,0.50036 -0.139127,0.91045 -0.309165,0.91045 -0.591605,0 -13.285554,-19.19 -13.250884,-20.03184 0.01923,-0.46618 1.160951,0.46318 2.537895,2.06558 1.742464,2.02777 2.307596,2.33086 1.856934,0.9996 -0.356101,-1.05198 -0.332376,-1.59752 0.05312,-1.21204 0.385478,0.38549 1.610272,-0.0637 2.721878,-0.9996 0.99569,-0.83831 1.493696,-1.25606 1.534484,-1.21583 z m 164.033161,0.97115 c 0.26706,0 -1.22172,1.74807 -3.30798,3.88459 -2.08625,2.13653 -4.01016,3.8846 -4.27722,3.8846 -0.26707,0 1.21984,-1.74807 3.30607,-3.8846 2.08626,-2.13652 4.01207,-3.88459 4.27913,-3.88459 z m 130.67836,0.44764 c 0.0586,0.0219 0.12232,0.1138 0.18967,0.28072 0.26941,0.66766 0.26941,1.76021 0,2.42787 -0.2694,0.66767 -0.48936,0.1214 -0.48936,-1.21393 0,-1.0015 0.12404,-1.56011 0.29969,-1.49466 z m -203.73078,0.83078 c -0.2633,-0.004 -0.49019,0.1035 -0.69612,0.30917 -0.82414,0.82311 -0.7124,1.85692 0.43816,4.08187 2.4149,4.66991 7.61039,9.17212 21.60428,18.71738 7.13297,4.86541 13.24178,9.28769 13.57521,9.8272 0.33344,0.53951 -2.61905,-1.1921 -6.56284,-3.84856 -6.8428,-4.60918 -12.77225,-8.02905 -13.92043,-8.02905 -0.29359,0 -0.5349,0.62552 -0.5349,1.39033 0,0.76481 3.64668,4.02293 8.10304,7.24 9.6708,6.98146 18.9232,16.59607 21.74273,22.59439 1.1245,2.39225 2.80342,6.94199 3.73096,10.11171 0.92753,3.1697 1.89064,5.16845 2.13956,4.44035 0.38212,-1.11766 0.5817,-1.11766 1.28981,0 0.65525,1.03425 0.8419,0.94899 0.85355,-0.38694 0.0328,-3.77371 -3.05646,-20.44911 -4.8861,-26.37277 -2.31538,-7.49636 -3.35019,-8.4437 -24.89138,-22.80873 -8.32515,-5.55173 -16.22642,-11.62072 -18.15784,-13.94509 -1.91402,-2.30346 -3.03781,-3.30939 -3.82769,-3.32126 z m -85.341618,0.30159 c 0.549389,-0.0702 1.013647,0.31302 1.325842,1.1153 1.91935,4.93229 9.354051,26.26606 9.806334,28.13867 0.290403,1.2018 0.418789,2.18509 0.284508,2.18509 -1.318286,0 -3.885237,-5.00546 -6.242284,-12.17162 -1.575379,-4.78959 -3.79461,-10.85712 -4.931612,-13.48417 -1.631346,-3.76924 -1.803541,-4.94339 -0.817514,-5.56134 0.199504,-0.12504 0.391587,-0.19853 0.574726,-0.22193 z m 226.038748,0.53869 c -1.55076,-0.0239 -5.28428,1.19677 -14.16133,4.23739 -32.84091,11.24889 -53.46976,23.36931 -58.28033,34.24439 -2.79192,6.31159 -8.7081,25.35152 -8.7081,28.02486 1e-5,4.27354 1.92765,2.26089 6.42628,-6.71458 2.47635,-4.94073 5.80267,-10.63123 7.39174,-12.64581 5.81645,-7.37404 21.40383,-16.51759 37.89567,-22.22642 6.49435,-2.24807 8.70709,-4.7021 4.23741,-4.7021 -2.97942,0 -17.35115,4.16115 -25.14745,7.28172 -5.30912,2.12502 -5.74593,2.18317 -3.61147,0.47989 5.80421,-4.6317 31.8452,-16.81031 50.58132,-23.6547 2.55168,-0.93214 4.45173,-2.2388 4.45173,-3.06329 0,-0.78422 -0.14501,-1.24701 -1.07547,-1.26135 z m -215.282135,0.79474 c 0.534133,0 1.24041,0.43702 1.570523,0.97115 0.330123,0.53414 0.16427,0.97115 -0.369862,0.97115 -0.534132,0 -1.242313,-0.43701 -1.572436,-0.97115 -0.330113,-0.53413 -0.162357,-0.97115 0.371775,-0.97115 z m 237.318875,0.13278 c 0.15397,0.0306 0.41406,0.4105 0.84596,1.15324 0.56682,0.97479 0.84686,1.95658 0.62215,2.18129 -0.22471,0.2247 -2.55924,0.6143 -5.18769,0.86493 l -4.77988,0.45523 4.12739,-1.07548 c 2.67255,-0.69612 4.13858,-1.6254 4.15774,-2.63652 0.0123,-0.65438 0.0603,-0.97331 0.21433,-0.94269 z m -203.594209,0.83837 c 1.37298,0 2.2906,3.16295 2.30838,7.95507 0.0221,5.97859 -1.48832,4.94538 -2.49047,-1.70329 -0.69794,-4.6304 -0.65043,-6.25178 0.18209,-6.25178 z m -7.503638,0.25607 c 0.144108,0.01 0.265016,0.0344 0.35849,0.0721 0.821388,0.33147 0.738121,0.51337 -0.257967,0.56523 -0.809103,0.0421 -3.101588,0.95181 -5.094736,2.02007 -4.058092,2.17501 -4.60346,2.30433 -4.60348,1.10202 1e-5,-1.08529 7.435973,-3.90814 9.597693,-3.7594 z m 22.903557,2.13387 c 0.0586,0.0219 0.12232,0.1138 0.18967,0.28072 0.26941,0.66767 0.26941,1.76021 0,2.42788 -0.2694,0.66766 -0.48936,0.12139 -0.48936,-1.21394 0,-1.0015 0.12404,-1.5601 0.29969,-1.49466 z m -47.457325,0.27693 c 0.69339,0.10594 1.267709,2.21897 1.963168,7.08636 0.607551,4.25215 2.090195,10.36767 3.294701,13.58849 2.344937,6.27031 2.322727,7.11768 -0.149848,5.73396 -0.987999,-0.55292 -1.817914,-2.80838 -2.221125,-6.03554 -0.354101,-2.83414 -1.479429,-8.39765 -2.499952,-12.36508 -1.40872,-5.47662 -1.575573,-7.38835 -0.692322,-7.93422 0.104631,-0.0647 0.20633,-0.0892 0.305378,-0.074 z m 253.479415,0.36228 c 0.2251,0.05 0.31384,1.14826 0.19725,2.67825 -0.13323,1.74854 -0.55175,3.3712 -0.93131,3.60577 -0.79196,0.48946 -0.19617,-5.4126 0.62973,-6.2385 0.0375,-0.0375 0.0722,-0.0526 0.10433,-0.0455 z m -250.645631,0.0569 c 0.05662,0.042 0.118655,0.22738 0.183994,0.56714 0.232269,1.20803 0.224112,2.9561 -0.01894,3.8846 -0.243069,0.92851 -0.433754,-0.0599 -0.422974,-2.19647 0.0068,-1.33533 0.08702,-2.13415 0.202951,-2.24958 0.01738,-0.0173 0.03613,-0.0197 0.05497,-0.006 z m 25.354202,0.20675 c 0.13717,0.007 0.24269,0.0306 0.31297,0.074 0.56226,0.34753 1.02236,2.98447 1.02236,5.85915 10e-6,2.87468 0.40568,5.47716 0.90097,5.78327 1.27662,0.789 10.761029,-3.08805 13.725059,-5.61067 1.36685,-1.16328 0.76367,-0.47762 -1.33912,1.52502 -2.56514,2.44295 -5.85678,4.26972 -10.001689,5.54996 -3.3978,1.04947 -8.366596,2.19804 -11.043035,2.55305 l -4.867127,0.64681 v -5.8819 -5.88001 l 5.290111,-2.58909 c 2.545887,-1.2456 5.039331,-2.07438 5.999501,-2.02956 z m 196.536299,0.71698 c 0.44006,0 0.88011,0.0683 1.21394,0.20296 0.66766,0.26941 0.12139,0.48938 -1.21394,0.48936 -1.33533,0 -1.8816,-0.21995 -1.21394,-0.48936 0.33385,-0.13471 0.77389,-0.20296 1.21394,-0.20296 z m -230.517035,0.20107 c 0.215945,0.045 0.354693,0.22874 0.354693,0.5292 0,0.53413 -0.437007,1.24231 -0.971149,1.57242 -0.534132,0.33012 -0.971149,0.16237 -0.971149,-0.37176 0,-0.53413 0.437017,-1.24042 0.971149,-1.57054 0.133533,-0.0825 0.261385,-0.135 0.377466,-0.15743 0.08702,-0.0168 0.167009,-0.0169 0.23899,-0.002 z m 18.749627,0.6449 c 0.565656,0 1.028049,0.43702 1.028049,0.97115 0,0.53413 -0.191229,0.97115 -0.426771,0.97115 -0.235543,0 -0.69983,-0.43702 -1.029953,-0.97115 -0.330113,-0.53413 -0.13698,-0.97115 0.428675,-0.97115 z m 45.423978,2.22871 c -1.51449,0.14001 -0.25739,2.40545 3.72717,6.66527 5.33626,5.70489 11.71987,18.59765 13.23001,26.71798 0.91959,4.94485 0.84698,6.70858 -0.44384,10.62953 -1.69581,5.15107 -1.46202,6.18187 1.0489,4.61486 3.70628,-2.31299 4.76714,-11.03219 2.64222,-21.72188 -0.26544,-1.33533 0.19965,-0.46129 1.03374,1.9423 1.10152,3.17435 1.37858,6.53214 1.01477,12.27404 -0.27547,4.34771 -0.22671,8.17978 0.10812,8.51462 1.16888,1.16888 2.25857,-1.0765 3.51852,-7.25327 l 1.26895,-6.22332 0.74922,4.355 c 0.41251,2.39555 0.97537,3.76104 1.24997,3.03294 0.42154,-1.11766 0.62912,-1.11766 1.33723,0 1.59627,2.51955 0.91704,-4.63004 -1.04322,-10.97664 -2.45995,-7.96436 -10.40886,-19.73728 -13.3533,-19.77768 -1.32436,-0.0182 -3.17575,-1.47267 -4.9468,-3.88459 -3.5798,-4.87517 -6.85858,-7.81773 -9.6508,-8.66448 -0.64535,-0.19571 -1.14136,-0.27699 -1.49086,-0.24468 z m -63.202456,0.0398 c 0.215945,0.045 0.354693,0.22874 0.354693,0.52919 0,0.53414 -0.437007,1.24232 -0.971149,1.57243 -0.534132,0.33011 -0.971149,0.16237 -0.971149,-0.37176 0,-0.53414 0.437017,-1.24042 0.971149,-1.57054 0.133533,-0.0825 0.261385,-0.13501 0.377466,-0.15743 0.08702,-0.0168 0.167009,-0.0169 0.23899,-0.002 z m 219.365896,0.0626 c 0.13156,-0.007 0.21556,0.005 0.24658,0.036 0.24819,0.24818 -0.69188,0.73779 -2.09024,1.08875 -4.51866,1.13411 -2.87676,3.01722 3.5261,4.04203 6.69301,1.07124 4.65306,1.1508 -8.46531,0.33005 l -8.7081,-0.54438 7.644,-2.68394 c 3.67829,-1.29148 6.92604,-2.22236 7.84697,-2.26854 z m -201.773305,1.55156 c 0.814988,5e-4 1.218918,1.67754 1.229115,5.10043 0.0087,2.80419 0.60691,7.61138 1.329639,10.68264 1.24717,5.29986 1.220269,5.58411 -0.531092,5.58411 -2.42089,0 -2.605146,-0.74177 -2.949487,-11.89847 -0.218644,-7.08433 0.01369,-9.46929 0.921825,-9.46871 z m -9.051411,1.74503 c 0.07536,-0.0407 0.163735,0.10468 0.256062,0.45902 0.246177,0.9449 0.229988,2.25595 -0.03603,2.91345 -0.266037,0.6575 -0.467453,-0.11419 -0.447642,-1.71658 0.01233,-1.0015 0.10199,-1.58813 0.22761,-1.65589 z m 11.752429,0.14036 c 0.05642,-3e-4 0.120228,0.25876 0.187772,0.80424 0.216139,1.74549 0.212108,4.3676 -0.0097,5.82689 -0.221597,1.4593 -0.398462,0.0315 -0.392635,-3.1733 0.0039,-2.2033 0.09022,-3.45715 0.214342,-3.45783 z m -20.043237,0.0587 c 0.476233,0 1.153182,1.14333 1.504145,2.54169 0.857545,3.41673 0.153345,3.87891 -1.242391,0.81561 -1.35652,-2.97724 -1.385024,-3.3573 -0.261754,-3.3573 z m 228.123304,3.04432 c 0.28834,-0.0327 0.7456,0.048 1.40172,0.22383 1.20973,0.32414 2.77191,0.59541 3.4711,0.60318 0.69921,0.008 0.99969,0.45029 0.66956,0.98442 -0.9599,1.55318 -5.07451,1.12029 -5.73584,-0.60318 -0.30025,-0.78242 -0.28708,-1.15369 0.19346,-1.20825 z m 25.07539,2.14526 c 0.11608,0.0195 0.24205,0.0693 0.37555,0.15175 0.53414,0.33011 0.97116,0.7925 0.97115,1.02804 1e-5,0.23555 -0.43701,0.42868 -0.97115,0.42868 -0.53413,0 -0.97115,-0.4624 -0.97115,-1.02806 0,-0.42424 0.24734,-0.63896 0.5956,-0.58041 z m -243.999328,0.002 c 0.08828,0.0134 0.192919,0.16281 0.309175,0.45333 0.280575,0.70104 0.246827,1.53803 -0.07585,1.86073 -0.322712,0.3227 -0.552379,-0.25089 -0.510232,-1.27463 0.02914,-0.70709 0.129736,-1.06172 0.276933,-1.03943 z m 43.443738,0.98253 c 0.0536,-0.0106 0.11001,-0.0107 0.17072,0 1.05222,0.18518 3.27262,3.69157 9.8822,15.03384 4.16976,7.15546 7.17504,13.31593 6.71269,13.7649 -0.99115,0.96246 -17.97252,-27.16479 -17.1772,-28.45164 0.11836,-0.19152 0.25066,-0.31534 0.41159,-0.3471 z m -5.25217,0.63921 c 0.63614,-0.008 1.4263,0.42184 1.75641,0.95598 0.74517,1.20571 0.40898,1.20571 -1.45672,0 -0.87528,-0.56566 -0.99465,-0.94724 -0.29969,-0.95598 z m -4.47638,2.68962 c 0.54568,0.0196 0.89148,0.17314 0.89148,0.50076 0,0.63988 -0.98327,1.20195 -2.18509,1.24808 -1.2018,0.0461 -3.059119,0.43753 -4.127379,0.87061 -1.30631,0.52958 -1.62431,0.46667 -0.97115,-0.19347 1.31666,-1.33074 4.755079,-2.48486 6.392139,-2.42598 z m -13.742136,0.63164 c 0.668986,0.0256 1.037527,0.20007 1.037527,0.5292 1e-5,0.54431 -1.311042,0.99011 -2.913448,0.99011 -1.602386,0 -2.913447,0.43702 -2.913447,0.97115 0,0.53413 -0.436998,0.97115 -0.971149,0.97115 -1.396513,0 -1.199088,-1.93435 0.242787,-2.37856 2.454881,-0.75628 4.402744,-1.12585 5.51773,-1.08305 z m -14.083566,0.349 c 0.07536,-0.0407 0.163735,0.10468 0.256063,0.45902 0.246176,0.9449 0.229987,2.25595 -0.03603,2.91345 -0.266037,0.6575 -0.467453,-0.11419 -0.447642,-1.71658 0.01233,-1.0015 0.10199,-1.58813 0.227609,-1.65589 z m 133.601282,0.19916 c 0.0501,0.0501 -0.24196,0.44379 -0.84596,1.21394 -0.73307,0.93473 -1.49785,1.69951 -1.69951,1.69951 -0.79929,0 -0.28616,-0.79881 1.33153,-2.06749 0.77016,-0.60398 1.16382,-0.89609 1.21394,-0.84596 z m -101.67286,0.72837 c 0.50943,0.0637 3.37843,4.68433 6.66717,10.77178 6.34588,11.74629 7.7511,15.11189 3.40851,8.16562 -6.03944,-9.6605 -10.47141,-17.91144 -10.14586,-18.88809 0.0124,-0.0372 0.0362,-0.0535 0.0702,-0.0493 z m 110.4132,5.09853 c 0.0501,0.0501 -0.24196,0.44378 -0.84595,1.21394 -0.73308,0.93473 -1.49786,1.69951 -1.69952,1.69951 -0.79929,0 -0.28615,-0.79881 1.33154,-2.06749 0.77016,-0.60399 1.16381,-0.89609 1.21393,-0.84596 z m -41.23969,2.39752 c 0.0584,-0.0523 0.49879,0.29525 1.30498,0.99012 1.23248,1.06229 2.67193,2.73881 3.19986,3.72527 0.52794,0.98645 0.70677,2.04735 0.39643,2.35769 -0.31034,0.31034 -0.56524,0.0871 -0.56524,-0.49506 1e-5,-0.58217 -1.18646,-2.51171 -2.63652,-4.28861 -1.21953,-1.49441 -1.77459,-2.22214 -1.69951,-2.28941 z m 15.93292,0.51593 c 0.56565,0 1.02804,0.43701 1.02804,0.97115 0,0.53413 -0.19122,0.97114 -0.42677,0.97114 -0.23554,0 -0.69983,-0.43701 -1.02995,-0.97114 -0.33011,-0.53414 -0.13698,-0.97115 0.42868,-0.97115 z m 5.3565,0.32245 c 0.7777,0 1.18933,0.3648 0.91424,0.80992 -0.27509,0.4451 -0.91239,0.80992 -1.415,0.80992 -0.50261,0 -0.91425,-0.36482 -0.91425,-0.80992 0,-0.44512 0.63731,-0.80992 1.41501,-0.80992 z m 15.88169,0.6487 c 0.26707,0 -0.30596,0.87403 -1.27274,1.94229 -0.96677,1.06827 -1.97492,1.9423 -2.24198,1.9423 -0.26707,0 0.30406,-0.87403 1.27083,-1.9423 0.96678,-1.06826 1.97683,-1.94229 2.24389,-1.94229 z m -130.225023,0.44004 c 0.310962,0.0397 0.588614,0.25089 0.825098,0.63353 0.441378,0.71417 0.31238,0.91413 -0.331938,0.51592 -0.579757,-0.3583 -1.329873,-0.20711 -1.665366,0.33573 -0.335493,0.54284 -2.003791,0.92219 -3.708197,0.84217 l -3.099335,-0.14605 2.913448,-0.42488 c 1.602405,-0.2343 3.421921,-0.84529 4.042029,-1.35809 0.36925,-0.30536 0.713309,-0.438 1.024261,-0.39833 z m 135.264753,2.4734 c 0.0501,0.0501 -0.24196,0.44379 -0.84596,1.21394 -0.73307,0.93473 -1.49785,1.69951 -1.69951,1.69951 -0.79929,0 -0.28616,-0.79881 1.33154,-2.06749 0.77016,-0.60399 1.16381,-0.89609 1.21393,-0.84596 z m -43.70171,1.9423 c 0.0501,-0.0501 0.44382,0.24197 1.21394,0.84596 0.93473,0.73307 1.69951,1.49785 1.69951,1.69951 10e-6,0.7993 -0.79691,0.28616 -2.06559,-1.33153 -0.60398,-0.77015 -0.89798,-1.16382 -0.84786,-1.21394 z m 7.19637,2.88879 c 0.30168,-0.0246 0.85879,1.46509 1.38275,3.80683 0.64488,2.88214 1.0486,5.36629 0.89528,5.51961 -0.15333,0.15334 -1.26816,-1.44054 -2.47719,-3.54127 -1.20908,-2.10075 -1.77987,-3.81821 -1.26894,-3.81821 0.51091,0 1.09653,-0.76478 1.30308,-1.69951 0.0387,-0.17527 0.0954,-0.26178 0.16502,-0.26745 z m 25.79236,2.03524 c 0.18671,-0.0113 0.36541,0.0849 0.54437,0.28262 0.70275,0.77658 0.028,2.69233 -2.27424,6.44714 -3.24423,5.29122 -3.33273,4.22825 -0.29589,-3.53369 0.84433,-2.15807 1.46563,-3.1623 2.02576,-3.19607 z"
     id="path898"
     inkscape:connector-curvature="0" />
  <g
     id="g817"
     transform="translate(3.3403418,-95.588262)" />
</svg>
