<?xml version="1.0" encoding="UTF-8" standalone="no"?>
<!-- Created with Inkscape (http://www.inkscape.org/) -->

<svg
   xmlns:dc="http://purl.org/dc/elements/1.1/"
   xmlns:cc="http://creativecommons.org/ns#"
   xmlns:rdf="http://www.w3.org/1999/02/22-rdf-syntax-ns#"
   xmlns:svg="http://www.w3.org/2000/svg"
   xmlns="http://www.w3.org/2000/svg"
   xmlns:sodipodi="http://sodipodi.sourceforge.net/DTD/sodipodi-0.dtd"
   xmlns:inkscape="http://www.inkscape.org/namespaces/inkscape"
   version="1.1"
   id="svg2"
   xml:space="preserve"
   width="600"
   height="600"
   viewBox="0 0 600 600"
   sodipodi:docname="dragon.svg"
   inkscape:version="0.92.3 (2405546, 2018-03-11)"><metadata
     id="metadata8"><rdf:RDF><cc:Work
         rdf:about=""><dc:format>image/svg+xml</dc:format><dc:type
           rdf:resource="http://purl.org/dc/dcmitype/StillImage" /><dc:title></dc:title></cc:Work></rdf:RDF></metadata><defs
     id="defs6"><clipPath
       clipPathUnits="userSpaceOnUse"
       id="clipPath18"><path
         d="M 0,4098.898 H 7273.698 V 0 H 0 Z"
         id="path16"
         inkscape:connector-curvature="0" /></clipPath></defs><sodipodi:namedview
     pagecolor="#ffffff"
     bordercolor="#666666"
     borderopacity="1"
     objecttolerance="10"
     gridtolerance="10"
     guidetolerance="10"
     inkscape:pageopacity="0"
     inkscape:pageshadow="2"
     inkscape:window-width="1920"
     inkscape:window-height="960"
     id="namedview4"
     showgrid="false"
     inkscape:zoom="0.96736521"
     inkscape:cx="586.32131"
     inkscape:cy="284.04001"
     inkscape:window-x="0"
     inkscape:window-y="27"
     inkscape:window-maximized="1"
     inkscape:current-layer="g12" /><g
     id="g10"
     inkscape:groupmode="layer"
     inkscape:label="dragon"
     transform="matrix(1.3333333,0,0,-1.3333333,0,599.9998)"><g
       id="g12"
       transform="matrix(0.14788195,0,0,0.14788195,-127.35814,-63.292809)"
       style="stroke-width:6.76215076"><g
         id="g14"
         clip-path="url(#clipPath18)"
         style="stroke-width:15.21483897;fill:none;fill-opacity:1;stroke:#fa0000;stroke-opacity:1;stroke-miterlimit:4;stroke-dasharray:none"
         transform="translate(-1040.7457,-24.71219)"><g
           id="g20"
           transform="translate(4451.5249,1972.8076)"
           style="stroke-width:15.21483897;fill:none;fill-opacity:1;stroke:#fa0000;stroke-opacity:1;stroke-miterlimit:4;stroke-dasharray:none"><path
             d="m 0,0 c 0,0 3.917,-8.269 3.917,-10.88 0,-0.435 -4.352,-4.787 -12.186,-6.528 0.871,-1.74 0.871,-4.885 14.347,-5.727 0.842,-0.281 5.054,-10.388 2.527,-12.915 0.842,1.404 -12.072,-0.842 -13.195,-5.334 -0.562,0.561 8.422,-5.335 16.564,-3.37 0,-0.561 6.177,-7.018 2.527,-10.107 -0.281,-0.842 -10.388,-7.299 -13.757,-4.492 1.123,-1.123 -0.843,-7.019 18.811,-8.703 0.561,-0.843 1.403,-8.704 4.773,-8.985 -0.281,-0.28 -14.881,-15.441 -19.934,-15.441 0.28,-0.281 -2.247,-6.177 27.794,-3.931 0,0 5.054,-6.738 4.212,-10.668 0.842,-0.562 -15.161,-13.477 -19.091,-14.319 -0.281,-0.281 -13.758,-10.669 31.164,-7.3 1.684,-0.28 3.368,-2.527 1.403,-8.142 -0.842,-1.123 -4.492,-6.738 -13.476,-7.861 -0.281,0.562 -11.511,-5.896 26.11,-7.019 -0.281,0.281 4.773,-3.369 2.527,-7.299 -0.281,0.561 -5.054,-9.265 -10.107,-10.388 0,-0.281 -7.861,-4.212 19.372,-2.527 1.123,-0.842 -7.861,-8.142 -2.246,-8.984 0,0.28 7.861,-1.123 10.388,0 -2.246,-1.123 15.723,-21.338 24.145,-21.057 2.246,0 31.445,29.76 40.148,64.855 2.527,42.113 3.369,53.343 -6.457,74.4 -1.404,35.937 0.842,48.29 -7.581,57.274 12.073,13.757 15.161,13.757 17.688,39.868 2.527,26.11 1.685,33.41 1.685,33.41 0,0 32.47,78.65 23.662,96.267 0,3.447 -11.872,-43.659 -24.128,-44.042 0.767,0 -26.794,42.016 -27.611,86.974 -0.409,1.635 -5.313,4.904 -5.313,13.079 -1.226,11.035 -2.179,80.211 -45.791,146.877 -6.854,-0.623 7.211,-44.776 -3.646,-71.754 -0.987,-0.329 -11.912,39.887 -153.039,133.415 -119.415,65.971 -51.775,50.105 -184.551,72.652 -34.238,15.866 -155.875,-28.661 -155.875,-28.661 0,0 74.13,113.257 74.13,117.161 0,3.903 55.768,2.788 58.556,3.346 2.789,0.557 7.25,-6.135 34.577,19.519 0.558,0.557 21.192,-2.789 39.595,4.461 25.096,8.923 240.919,70.826 244.265,74.73 18.962,11.153 39.596,28.999 37.923,30.672 -1.673,1.673 -36.807,-4.461 -46.846,-9.48 -12.826,-5.577 -46.287,-16.173 -49.633,-16.173 -3.347,0 -13.942,0.557 -15.058,20.076 -1.115,19.519 -14.499,148.344 -10.038,177.901 4.461,29.557 11.154,46.288 5.577,52.98 -2.231,2.789 -17.288,-22.865 -28.442,-29.557 -13.385,-12.269 -32.345,-28.442 -40.711,-32.346 -8.365,-3.903 -97.594,-94.248 -122.133,-123.248 -24.538,-28.999 -131.613,-128.267 -150.016,-135.517 -9.481,-2.23 -57.939,2.547 -62.063,1.664 -4.123,-0.884 -29.442,0.915 -29.872,5.643 -0.43,4.728 -3.438,0.429 0,-28.798 -5.587,-6.877 -26.219,-25.789 -42.122,-31.806 -16.333,-6.448 -74.788,-33.956 -99.287,-51.149 -24.5,-17.192 -196.856,-97.138 -216.628,-100.147 -19.772,-3.009 -50.288,-5.588 -69.2,-21.921 l -18.912,-16.333 c 0,0 -78.657,1.72 -80.376,1.72 -1.719,0 110.463,88.112 121.638,91.551 11.175,3.438 20.202,19.341 29.658,33.095 9.455,13.755 57.595,22.351 67.051,23.64 9.456,1.29 9.026,15.474 18.052,16.763 9.026,1.29 97.998,30.517 118.629,24.5 16.333,3.009 12.465,14.184 30.947,20.631 18.482,6.447 185.733,106.606 192.899,116.302 7.167,9.697 32.883,39.629 32.883,52.698 0.422,3.794 -51.854,-26.138 -60.707,-26.981 -8.853,-0.843 -145.569,-34.698 -253.362,178.703 -94.683,210.489 -170.881,372.838 -186.921,468.012 -25.665,95.174 -29.489,109.036 -42.874,109.036 -3.824,-3.346 -0.478,-71.224 -1.912,-87.954 -1.434,-16.73 -11.472,-45.889 -47.323,-82.696 -35.85,-36.806 -207.493,-233.587 -246.007,-285.434 -38.515,-51.847 -199.888,-276.243 -472.035,-511.917 -143.088,-115.031 -107.996,-94.292 -143.088,-115.031 -39.6,6.312 -192.887,18.034 -290.269,40.576 -19.837,-7.214 1.804,-9.919 12.624,-18.935 10.82,-9.017 72.135,-50.495 116.317,-45.085 3.607,-7.213 46.888,-37.871 55.905,-47.789 0,-8.115 -41.478,-42.379 -22.542,-34.264 18.935,8.115 27.05,17.351 41.477,15.889 14.427,-1.462 106.399,-86.22 129.843,-91.631 23.444,-5.41 29.756,-9.016 77.545,7.214 47.789,16.23 71.233,26.149 71.233,26.149 0,0 194.588,-258.748 57.026,-313.079 -9.247,-10.404 -15.027,-23.119 -15.027,-23.119 0,0 84.386,58.955 119.066,57.799 34.679,-1.156 237.943,11.559 435.131,-89.011 -15.511,-17.339 -191.679,-220.834 -275.292,-455.358 -140.715,-240.643 -320.177,-244.722 -320.177,-244.722 0,0 -471.089,-73.416 -454.774,601.607 77.254,353.269 233.155,376.134 233.155,376.134 0,0 20.974,41.032 -27.463,31.181 -54.184,-18.061 -291.07,-79.356 -323.782,-586.4 65.424,-848.188 738.367,-698.645 738.367,-693.972 0,4.674 240.671,39.723 476.668,380.867 2.337,2.337 51.621,-25.542 55.207,-30.322 3.585,-4.78 15.33,-32.969 18.853,-35.905 -0.587,-6.46 -8.809,-8.809 -9.983,-12.92 -1.175,-4.11 -43.903,-30.61 -32.801,-142.866 -4.317,-86.968 -38.241,-77.099 -56.128,-86.351 -17.887,-9.252 -20.354,-22.205 -16.036,-43.793 4.317,-21.587 40.442,-65.276 35.574,-173.065 5.564,-77.887 16.69,-75.105 16.69,-75.105 0,0 -2.086,-56.329 15.995,-64.674 0,-1.391 10.283,-33.383 8.76,-41 0,-1.904 2.285,-20.185 6.474,-4.57 3.428,17.9 9.141,38.847 6.855,67.411 0.381,0 29.326,-24.755 33.516,-24.755 0.761,-0.381 11.425,-26.66 17.138,-28.565 -2.666,-2.285 -15.996,-32.753 4.189,-50.653 1.524,-2.666 0.762,-33.896 -9.14,-41.132 -0.381,-1.523 -4.57,-14.092 7.617,-4.189 11.425,17.9 16.376,28.944 21.328,58.27 4.951,29.326 12.949,62.46 12.949,65.507 0,3.047 4.951,3.427 -9.903,22.47 -14.853,19.043 -16.376,20.185 -20.566,22.47 -4.189,2.285 -14.472,8.76 -17.138,18.281 -6.474,10.664 -11.806,0.762 -24.755,62.079 -2.666,74.267 -3.428,132.537 3.808,151.199 7.236,18.662 22.47,68.554 63.983,127.205 -0.381,-0.762 60.937,-10.283 145.867,-82.645 7.998,-9.141 49.892,0 63.983,3.047 -2.285,-1.905 11.045,-17.139 22.09,-12.188 0.762,0 28.945,-28.944 29.706,-17.519 -3.427,12.187 -15.996,36.943 -20.185,39.609 -0.381,0.381 6.719,2.26 -12.074,16.251 -1.253,1.67 23.596,38.004 32.366,41.762 -0.627,0.418 13.782,-1.044 15.452,4.803 -0.626,1.044 11.903,-24.014 32.157,-18.793 0.209,0.417 21.717,-18.167 29.234,-28.608 0.627,0.836 4.177,-6.682 4.594,5.429 -6.264,18.585 -4.743,29.727 -50.356,74.037 0.326,-0.977 10.425,-3.584 15.964,6.191 0,-1.629 10.426,-28.997 33.233,-19.875 9.774,1.629 16.29,1.955 19.874,-1.954 3.258,-3.91 10.426,-5.213 19.874,-26.065 0.326,-1.303 6.842,-10.752 5.865,2.932 -4.562,14.336 -15.977,45.569 -43.525,59.879 -24.054,12.388 -12.884,17.203 -21.55,18.359 -12.326,3.081 -49.111,3.466 -50.844,-0.193 -4.237,-5.97 -17.911,-19.644 -22.34,-19.259 -4.43,0.385 -6.518,4.727 -13.657,4.727 -7.139,0 -31.232,0 -41.047,4.462 -9.816,4.461 -18.442,6.841 -30.934,5.949 -15.765,4.164 -93.726,39.594 -98.94,53.498 10.862,22.593 49.491,91.317 72.867,108.245 26.601,42.722 34.662,41.11 12.897,78.189 -21.764,37.08 -54.813,96.73 -62.067,132.197 -7.255,35.467 -8.867,58.038 -4.031,78.19 0.806,26.6 -2.418,33.855 -2.418,33.855 0,0 70.935,65.292 70.935,74.965 35.467,5.643 134.615,16.122 163.634,29.825 -1.613,1.612 158.797,-104.79 182.173,-108.015 8.061,-0.806 17.734,-3.224 30.631,1.613 0,2.418 12.549,-14.694 12.549,-27.623 2.662,-9.886 7.605,-13.309 10.647,-12.168 0,-2.281 20.154,-36.124 22.435,-38.406 2.662,-1.901 5.704,-1.521 5.704,4.943 0,6.465 -6.845,47.533 -8.366,50.955 -1.521,3.422 -13.309,25.097 -13.309,30.041 -1.521,-0.761 39.167,0 59.701,17.111 -0.76,1.902 3.803,-26.998 15.971,-24.717 1.521,0.761 11.027,-21.674 10.267,-29.66 0.38,-3.042 2.662,-7.225 6.084,0.38 2.281,8.746 2.662,21.295 2.662,21.295 0,0 11.027,-26.618 7.605,-42.209 0.761,-1.521 -0.76,-15.59 7.986,-2.281 3.042,11.788 5.703,45.631 -4.183,66.925 -6.084,25.478 -1.141,26.238 -4.183,31.942 -2.282,5.704 6.084,2.662 6.084,-1.141 0,-3.802 -6.464,-17.111 13.309,-26.238 3.042,-3.042 9.887,-4.183 9.887,-13.689 2.661,-7.985 6.844,-13.309 4.563,-25.858 -0.761,-6.464 3.042,-13.309 7.605,7.986 0,24.717 -2.662,40.688 -9.887,57.039 -7.225,16.351 -6.844,17.492 -7.225,22.435 -0.38,4.943 -39.547,22.815 -40.307,20.534 -5.704,-4.563 -8.746,-14.45 -19.774,-11.028 -11.027,0.761 -49.814,-11.027 -84.797,-6.844 -26.619,2.662 -48.673,-7.605 -87.08,47.152 14.45,7.225 29.28,-0.38 33.843,-4.944 6.845,-4.563 11.408,-6.464 22.055,-5.323 0.381,-1.141 20.915,-9.507 29.281,-5.324 -0.761,4.563 -6.085,19.393 -34.984,35.745 -12.549,10.647 -15.591,12.548 -23.577,14.069 -2.281,0 20.534,14.07 30.421,38.787 0,0 3.803,1.901 6.084,0.76 0,-0.76 4.564,-5.704 12.549,-1.901 2.662,0.76 14.45,-27.379 29.28,-21.295 2.281,0.761 6.756,3.943 33.409,-25.491 -1.159,-0.232 2.086,-5.794 3.708,3.245 0.927,1.159 -10.314,34.344 -30.623,53.482 -5.078,10.545 -3.906,-3.515 -5.078,10.545 -4.296,10.546 -17.575,30.855 -19.919,32.417 -2.343,1.563 12.499,2.734 13.67,-2.734 1.172,-5.468 8.593,-25.777 30.855,-19.137 3.124,-1.172 16.013,4.296 26.559,-34.37 -1.172,-1.172 1.562,-7.812 4.296,0 -0.391,8.592 2.343,39.837 -25.387,60.538 -3.906,6.249 -21.481,28.902 -23.825,31.245 -2.343,2.343 -14.06,6.64 -31.245,6.64 -19.529,0.39 -20.31,4.687 -24.606,-1.172 -4.296,-5.859 -4.296,-8.202 -7.811,-8.202 -3.515,0 -21.091,5.077 -26.168,0.781 -7.031,-6.639 -10.936,-9.373 -21.482,-12.889 -10.545,-6.249 -15.622,-17.966 -17.966,-19.137 -2.343,-1.172 -23.824,-15.623 -30.855,-17.185 -7.03,-1.563 -24.215,-7.031 -30.855,-3.515 -6.639,3.515 -37.885,50.773 -48.039,54.679 -1.563,1.562 0.781,1.172 4.686,23.044 2.734,2.734 55.186,53.993 53.851,118.218 4.006,25.491 8.013,28.83 8.681,58.882 4.007,16.028 189.607,316.821 345.838,145.895 40.826,-49.173 6.391,-48.44 1.263,-46.608 -5.129,1.831 -21.614,4.762 -25.277,2.198 -1.466,-3.298 -0.62,-16.013 10.575,-39.582 11.195,-23.569 22.39,-65.993 17.087,-64.815 -5.303,1.179 -22.062,12.514 -22.062,19.211 0,6.697 -10.818,-17.515 24.727,-48.939 19.061,-97.878 15.454,-197.816 8.242,-214.301 -7.211,-16.485 -14.938,-25.242 -10.817,-29.363 8.757,-1.031 22.151,1.03 41.211,-15.97 12.364,-13.394 18.545,-12.879 24.212,-10.818 5.667,2.061 16.129,23.302 16.763,25.522 0.634,2.219 7.609,2.219 7.609,2.219 0,0 -4.755,6.658 -3.17,8.56 1.585,1.902 11.413,3.487 12.999,3.487 1.585,0 -13.316,4.756 -11.097,11.097 2.219,6.341 0.951,9.194 4.122,9.511 3.17,0.317 9.511,2.536 16.803,0.634 1.902,0.317 2.853,6.975 -0.635,8.56 -3.487,1.586 -13.315,6.975 -13.315,11.097 0,4.121 0.951,11.096 3.17,11.096 2.22,0 13.95,-0.317 15.853,-0.317 1.902,0 6.34,1.585 0.633,5.39 -5.706,3.804 -12.364,6.341 -11.096,12.999 1.268,6.658 4.122,11.73 4.122,11.73 0,0 9.828,-0.634 11.413,0.951 1.585,1.586 2.22,-0.951 1.585,1.586 -0.634,2.536 -11.73,3.804 -10.145,8.877 1.585,5.072 4.383,11.302 5.733,11.88 1.349,0.579 4.241,0.771 4.241,0.771 0,0 21.681,-69.277 23.213,-111.791 3.83,-9.958 7.378,-11.541 10.806,-3.366 3.428,8.175 10.674,28.555 -17.406,157.633 C -4.59,-41.384 4.958,-10.064 0,0"
             style="fill:none;fill-opacity:1;fill-rule:nonzero;stroke:#fa0000;stroke-width:15.21483897;stroke-opacity:1;stroke-miterlimit:4;stroke-dasharray:none"
             id="path22"
             inkscape:connector-curvature="0" /></g></g></g></g></svg>