<?xml version="1.0" encoding="UTF-8" standalone="no"?>
<!-- Created with Inkscape (http://www.inkscape.org/) -->

<svg
   xmlns:dc="http://purl.org/dc/elements/1.1/"
   xmlns:cc="http://creativecommons.org/ns#"
   xmlns:rdf="http://www.w3.org/1999/02/22-rdf-syntax-ns#"
   xmlns:svg="http://www.w3.org/2000/svg"
   xmlns="http://www.w3.org/2000/svg"
   xmlns:sodipodi="http://sodipodi.sourceforge.net/DTD/sodipodi-0.dtd"
   xmlns:inkscape="http://www.inkscape.org/namespaces/inkscape"
   version="1.1"
   id="svg2"
   width="640"
   height="440"
   viewBox="0 0 640 440"
   sodipodi:docname="lotus.svg"
   inkscape:version="0.92.3 (2405546, 2018-03-11)">
  <metadata
     id="metadata8">
    <rdf:RDF>
      <cc:Work
         rdf:about="">
        <dc:format>image/svg+xml</dc:format>
        <dc:type
           rdf:resource="http://purl.org/dc/dcmitype/StillImage" />
        <dc:title></dc:title>
      </cc:Work>
    </rdf:RDF>
  </metadata>
  <defs
     id="defs6" />
  <sodipodi:namedview
     pagecolor="#ffffff"
     bordercolor="#666666"
     borderopacity="1"
     objecttolerance="10"
     gridtolerance="10"
     guidetolerance="10"
     inkscape:pageopacity="0"
     inkscape:pageshadow="2"
     inkscape:window-width="1920"
     inkscape:window-height="960"
     id="namedview4"
     showgrid="false"
     inkscape:zoom="0.7023512"
     inkscape:cx="6.1480655"
     inkscape:cy="188.04554"
     inkscape:window-x="0"
     inkscape:window-y="27"
     inkscape:window-maximized="1"
     inkscape:current-layer="svg2" />
  <path
     style="fill:#00ffff;fill-opacity:1;stroke:#dd3400;stroke-width:1.99999988;stroke-miterlimit:4;stroke-dasharray:none;stroke-opacity:1"
     d="m 300.93551,65.276004 c -3.56465,-0.02192 -7.62111,0.210172 -11.4792,0.736954 -16.84018,2.29936 -29.92745,7.505771 -42.48635,16.90476 -22.09058,16.532461 -34.77165,47.517402 -30.74345,75.116992 0.837,5.73479 0.9248,5.48707 2.39941,-6.80376 1.89169,-15.76699 5.08523,-26.51221 10.59545,-35.65191 14.93802,-24.777384 39.3879,-39.132621 79.49206,-46.672942 1.50522,-0.283002 2.73676,-1.001286 2.73676,-1.595151 0,-1.257869 -4.5736,-1.998408 -10.51468,-2.034943 z m 80.05982,17.829522 c -1.38559,0.10285 -4.24848,4.667051 -11.75003,18.366784 l -10.78787,19.70044 2.18085,6.19279 c 1.2,3.40511 3.76961,9.71376 5.71109,14.01876 2.4975,5.53787 3.91062,7.44771 4.82735,6.53036 0.71265,-0.71314 2.77712,-6.05132 4.58741,-11.86257 1.8103,-5.81127 3.81488,-10.57394 4.45674,-10.58124 0.64187,-0.008 2.53721,5.00071 4.20968,11.12801 1.67246,6.12731 3.5882,11.23522 4.25718,11.35146 0.66899,0.11612 4.16262,-5.63398 7.76603,-12.77783 l 6.55209,-12.98939 -10.00866,-18.65683 c -5.50561,-10.261564 -10.67622,-19.352757 -11.48871,-20.204417 -0.14676,-0.153825 -0.31521,-0.231017 -0.51315,-0.216327 z m 46.74354,16.978464 c -1.98291,0 -12.33634,10.88909 -17.35897,18.25744 -9.38338,13.76566 -16.9448,33.48968 -15.8813,41.42392 0.80629,6.01544 7.19067,16.94414 20.24539,34.64872 5.42984,7.36383 12.18155,17.98721 15.00232,23.60866 4.76115,9.48838 5.12888,10.92763 5.13617,20.08318 0.009,11.04938 -1.34389,14.57631 -9.23419,24.07938 -2.60094,3.13258 -4.72757,6.293 -4.72757,7.02246 0,4.79298 27.68607,-10.64561 37.3169,-20.80826 8.96973,-9.46503 14.48271,-27.10188 13.33222,-42.6601 -0.63263,-8.55513 -7.01752,-28.90182 -10.4054,-33.16054 -0.56524,-0.71054 -6.50609,-12.24532 -13.20155,-25.63411 -11.48137,-22.9591 -14.09903,-29.27014 -17.29245,-41.68781 -0.73168,-2.84512 -2.05091,-5.17294 -2.93157,-5.17294 z m -94.52999,0.72982 c -0.74316,-0.067 -2.65625,4.5344 -4.25005,10.22464 -1.88731,6.73807 -8.61242,21.80595 -19.28564,43.20926 -9.01341,18.07487 -17.29492,36.1147 -18.40426,40.08792 -2.73709,9.80314 -1.84149,27.77653 1.86728,37.49192 4.58078,11.99966 9.51142,17.83211 22.66858,26.80847 6.63634,4.5276 14.52907,9.00736 17.53951,9.95602 3.01044,0.94865 5.88404,1.76248 6.38578,1.8091 2.19583,0.20405 0.54162,-3.08696 -4.06239,-8.0851 -7.70635,-8.36606 -10.0188,-14.73529 -9.37674,-25.83379 0.68761,-11.88627 5.61168,-22.2968 19.31651,-40.85102 11.82473,-16.00883 20.2952,-30.12641 21.30257,-35.49978 1.64284,-8.763 -10.5336,-35.64854 -22.6947,-50.10572 -4.03698,-4.79917 -7.86117,-8.80721 -8.49775,-8.90763 -0.63657,-0.10041 -1.76552,-0.23734 -2.5087,-0.30429 z m -77.30643,4.13882 c -1.66889,0 -1.81795,1.19513 -1.08331,8.65565 1.33037,13.51027 0.88477,31.22524 -1.14744,45.67449 -3.7957,26.98789 -4.29811,34.15564 -3.03847,43.28296 3.15394,22.85324 21.38305,43.83264 50.01957,57.56561 4.89689,2.34835 9.71446,4.26956 10.70711,4.26956 0.99266,0 -2.31601,-3.99285 -7.35505,-8.87435 -6.68199,-6.47309 -10.37299,-11.29496 -13.63155,-17.81288 -4.11643,-8.23381 -4.4667,-9.76308 -4.45198,-19.42468 0.0289,-18.92567 3.3682,-31.04275 14.65307,-53.17478 8.16198,-16.00737 9.74436,-19.98911 8.7068,-21.90892 -2.37949,-4.40288 -22.74909,-23.31579 -30.49637,-28.31567 -7.66232,-4.94503 -19.15709,-9.93699 -22.88238,-9.93699 z m 248.25673,1.21717 c -4.10282,0 -14.84949,4.98726 -23.85164,11.06857 -7.91518,5.34702 -29.00807,26.03663 -28.94032,28.38697 0.044,1.52742 3.07956,7.65434 11.81654,23.83691 8.31706,15.4048 11.23603,26.17667 12.11825,44.74497 l 0.70795,14.92688 -4.3736,8.85296 c -3.14282,6.36336 -6.78429,11.18616 -12.94736,17.14011 -4.71675,4.55673 -8.57613,8.50739 -8.57613,8.77926 0,3.03132 21.12259,-7.57541 33.17612,-16.6599 15.41356,-11.61688 25.07024,-26.65913 27.66696,-43.09516 1.44236,-9.12941 1.18438,-13.10853 -2.6845,-41.38352 -1.9947,-14.5778 -2.37056,-22.12105 -1.86015,-37.42774 l 0.63906,-19.17031 z M 378.8406,144.56272 c -0.71019,-0.0214 -1.22936,1.10891 -1.90526,3.06668 -3.71445,10.7588 -16.36039,33.41837 -25.43148,45.56751 -11.59495,15.52936 -16.35155,24.93267 -18.05029,35.67807 -3.46015,21.88749 7.87437,39.47091 30.00938,46.5517 18.62034,5.95648 43.45994,0.1409 54.8493,-12.83963 15.42263,-17.57729 12.77612,-40.1683 -7.99174,-68.22053 -12.23132,-16.52146 -19.73776,-28.22957 -24.73777,-38.57596 -3.84443,-7.95515 -5.55846,-11.19213 -6.74214,-11.22784 z m -248.16645,14.10672 c -2.06081,0.0255 -4.18801,0.0848 -6.40241,0.17353 -21.06471,0.844 -36.093571,4.54648 -53.65671,13.22001 -11.239282,5.55049 -14.165894,7.70891 -24.388556,17.98168 -9.555087,9.60189 -12.509664,13.50821 -16.651019,22.01827 -6.862683,14.10204 -8.889611,22.41267 -9.645189,39.55777 -1.063555,24.13384 4.805038,45.62436 17.971886,65.80759 20.130782,30.85815 60.123665,52.03634 106.767028,56.53862 31.04859,2.99699 74.33919,-3.03659 113.87026,-15.86828 28.41852,-9.22457 46.07834,-16.50045 86.36008,-35.58298 30.15114,-14.28342 42.2456,-18.06665 60.81696,-19.02291 13.67714,-0.70426 14.40463,-0.86617 11.55522,-2.57696 -2.33508,-1.40201 -7.13427,-1.82017 -20.67777,-1.80435 -20.86977,0.0244 -27.37189,1.56747 -63.26626,15.01959 -72.04252,26.99933 -119.51107,37.90558 -164.97789,37.90558 -28.42146,0 -48.5086,-3.68607 -70.336243,-12.90383 -34.51956,-14.57751 -55.611506,-39.68863 -61.201814,-72.86571 -6.302704,-37.40497 15.40312,-71.91526 54.797022,-87.11745 30.686375,-11.84192 62.956705,-13.625 94.931485,-5.24662 6.56156,1.71933 12.25886,2.79759 12.6599,2.39628 1.22449,-1.2253 -19.13935,-10.15326 -29.09474,-12.75643 -13.90491,-3.63591 -25.00557,-5.05211 -39.43124,-4.8734 z m 393.33132,35.06948 c -3.52506,0.0452 -5.92081,0.50281 -6.51644,1.43351 -0.58998,0.92186 -1.70676,5.37078 -2.48257,9.88706 -4.0462,23.55457 -26.33276,50.34328 -50.94134,61.23373 -3.66041,1.61991 -6.65422,3.50135 -6.65422,4.17923 0,1.68088 4.58034,1.55456 24.07971,-0.66326 58.65405,-6.67119 96.40076,-22.45361 127.05043,-53.11773 13.71235,-13.71879 14.74674,-16.22477 6.0817,-14.74383 -3.17768,0.5431 -14.26158,0.96587 -24.63087,0.94141 -17.60272,-0.0415 -19.8214,-0.31471 -33.44933,-4.12456 -11.55842,-3.23132 -24.78193,-5.12516 -32.53707,-5.02556 z m -291.48904,0.16165 c -6.75744,0.16248 -16.24911,1.78527 -27.71686,4.85201 -20.56048,5.49839 -41.80977,6.54368 -60.29193,2.96684 -6.99641,-1.354 -5.91697,1.44679 5.01501,13.00129 21.30619,22.51946 51.76479,39.54882 85.29817,47.69042 10.88277,2.64222 37.58237,6.96451 52.30259,8.46784 9.32437,0.95226 15.8124,0.77437 15.8124,-0.43505 0,-0.69322 -2.50473,-2.33593 -5.56617,-3.6491 -18.21118,-7.81151 -38.20356,-27.13598 -46.72454,-45.16577 -3.12536,-6.61305 -4.32947,-10.82549 -6.81576,-23.81548 -0.53177,-2.77827 -4.55548,-4.07545 -11.31291,-3.913 z"
     id="path862"
     inkscape:connector-curvature="0" />
</svg>
