<?xml version="1.0" encoding="UTF-8" standalone="no"?>
<svg
   xmlns:dc="http://purl.org/dc/elements/1.1/"
   xmlns:cc="http://creativecommons.org/ns#"
   xmlns:rdf="http://www.w3.org/1999/02/22-rdf-syntax-ns#"
   xmlns:svg="http://www.w3.org/2000/svg"
   xmlns="http://www.w3.org/2000/svg"
   xmlns:sodipodi="http://sodipodi.sourceforge.net/DTD/sodipodi-0.dtd"
   xmlns:inkscape="http://www.inkscape.org/namespaces/inkscape"
   version="1.1"
   id="Layer_1"
   x="0px"
   y="0px"
   viewBox="0 0 1323.115 1705.414"
   enable-background="new 0 0 1323.115 1705.414"
   sodipodi:docname="tribal.svg"
   inkscape:version="0.92.3 (2405546, 2018-03-11)">
  <metadata
     id="metadata27">
    <rdf:RDF>
      <cc:Work
         rdf:about="">
        <dc:format>image/svg+xml</dc:format>
        <dc:type
           rdf:resource="http://purl.org/dc/dcmitype/StillImage" />
        <dc:title></dc:title>
      </cc:Work>
    </rdf:RDF>
  </metadata>
  <defs
     id="defs25" />
  <sodipodi:namedview
     pagecolor="#ffffff"
     bordercolor="#666666"
     borderopacity="1"
     objecttolerance="10"
     gridtolerance="10"
     guidetolerance="10"
     inkscape:pageopacity="0"
     inkscape:pageshadow="2"
     inkscape:window-width="1920"
     inkscape:window-height="960"
     id="namedview23"
     showgrid="false"
     inkscape:zoom="0.25277945"
     inkscape:cx="203.389"
     inkscape:cy="730.95499"
     inkscape:window-x="0"
     inkscape:window-y="27"
     inkscape:window-maximized="1"
     inkscape:current-layer="Layer_1" />
  <path
     style="fill:#666666;stroke:#d2d500;stroke-opacity:1;stroke-width:5;stroke-miterlimit:4;stroke-dasharray:none"
     d="M 753.33203 55.574219 C 747.7423 55.63118 742.05119 55.918672 736.25781 56.445312 C 743.98181 60.307313 742.37266 58.567187 747.47266 61.117188 C 857.58766 116.17519 912.48933 178.82294 882.98633 311.58594 C 857.73133 425.23194 747.23686 634.60203 716.63086 772.33203 C 715.59486 776.99503 705.3162 819.80709 706.0332 820.24609 C 643.2912 781.83909 627.56705 705.57577 541.87305 677.00977 C 507.68505 665.61377 456.05652 667.9213 445.60352 669.5293 C 382.23952 679.2773 260.18945 737.41455 261.18945 737.06055 C 260.33545 737.36255 251.1633 740.68058 250.6543 740.14258 C 256.3323 746.12958 302.82022 731.70819 321.19922 727.99219 C 453.89522 701.16719 538.34333 712.0442 629.61133 804.6582 C 681.58433 857.3982 659.80153 855.73617 704.89453 881.70117 C 720.34753 890.59917 729.55795 963.02259 757.75195 1040.5586 C 773.89595 1084.9546 807.03016 1165.2849 826.91016 1205.0449 L 827.47266 1205.418 C 827.93166 1206.107 827.7617 1205.8501 828.2207 1206.5391 L 828.78125 1206.9141 C 829.45725 1208.2671 829.97439 1209.2993 830.65039 1210.6523 L 831.21094 1210.2773 C 831.66994 1209.5883 831.49998 1209.8443 831.95898 1209.1562 L 832.51953 1208.7832 C 832.51953 1197.4092 832.58694 1196.0254 831.58594 1191.0254 C 779.80594 932.16539 760.77108 859.41875 872.70508 609.71875 C 955.28608 425.49975 977.05364 352.98597 960.55664 265.79297 C 938.38028 148.57384 866.98992 54.416008 753.33203 55.574219 z M 642.79883 67.660156 C 623.30483 67.660156 581.97733 73.389578 582.98633 73.267578 C 171.87233 122.60258 -40.486828 521.84937 74.201172 904.10938 L 74.574219 905.97852 C 76.870219 905.51952 76.0175 905.73197 78.3125 905.04297 L 78.6875 904.48242 L 79.248047 904.10938 C 79.248047 864.15638 24.018766 510.73805 275.50977 259.24805 C 429.57777 105.18005 563.13797 96.707297 644.66797 69.529297 L 644.29492 68.96875 C 643.60592 68.50975 643.86183 68.679703 643.17383 68.220703 L 642.79883 67.660156 z M 934.12695 102.05078 C 933.21861 101.9935 932.78467 102.36625 932.89258 103.17578 C 933.26558 105.04478 939.37294 115.01108 951.21094 133.08008 C 1095.1139 352.72008 961.02442 619.05858 843.73242 853.64258 C 843.63942 853.82858 839.91814 861.27114 839.99414 861.11914 C 839.30514 865.71014 839.51955 864.0047 839.06055 868.5957 C 843.65155 868.1367 841.94611 868.34916 846.53711 867.66016 C 910.30711 835.77516 1019.1279 782.64639 1084.2949 811.02539 C 1104.5719 820.03739 1107.2852 820.16714 1107.2852 861.11914 C 1107.2852 977.60314 1053.8311 1079.5889 985.78906 1091.9609 C 952.98806 1097.9249 900.21059 1084.773 871.05859 1073.207 C 821.94059 1053.719 963.08892 1175.7918 1064.2949 1116.2598 C 1152.6469 1064.2878 1176.1416 890.7515 1160.5566 819.0625 C 1147.8086 760.4255 1098.3109 745.11989 1044.6699 731.21289 L 1044.2949 730.65234 L 1043.7344 730.27734 C 1043.7344 699.17834 1131.0801 413.38491 1033.4531 218.12891 C 996.05853 143.34063 942.90758 102.60449 934.12695 102.05078 z M 1064.5918 186.07031 C 1057.5903 186.59497 1086.0257 230.24422 1101.6777 279.80859 C 1142.9837 410.61159 1123.6886 562.0163 1106.3516 689.1543 C 1102.3896 718.2053 1126.1789 719.50037 1150.8379 743.73438 C 1203.4359 797.25537 1220.5342 957.40434 1220.2422 956.40234 C 1224.6352 971.46334 1277.6396 842.11203 1280.1836 691.95703 C 1283.2556 510.67403 1228.6377 398.75319 1210.9688 346.49219 C 1209.1598 341.14219 1206.5974 333.52089 1202.3164 331.58789 C 1196.8774 329.13089 1202.6679 344.21834 1204.5039 350.90234 C 1253.0869 527.78034 1214.2186 641.42013 1199.8086 713.45312 L 1196.0703 713.45312 C 1186.0213 663.20412 1203.2333 282.81575 1069.9023 188.59375 C 1067.3151 186.8 1065.592 185.99536 1064.5918 186.07031 z M 381.41797 799.57422 C 306.13181 800.4349 240.93662 845.69959 164.29297 826.53906 L 163.91992 825.97852 L 163.35742 825.60547 L 162.79688 825.97852 C 162.33787 826.66752 162.50783 826.41161 162.04883 827.09961 L 161.48828 827.47461 C 161.48828 845.03861 213.75217 973.19648 253.07617 1012.5215 C 320.09317 1079.5385 474.54767 1082.1161 573.26367 993.45508 C 597.75567 971.02408 606.34961 959.28636 606.34961 936.81836 C 606.34961 914.83036 603.22817 908.78969 583.20117 895.17969 C 471.90417 819.54369 491.59467 830.83162 454.01367 814.39062 C 428.45766 803.20977 404.46475 799.31075 381.41797 799.57422 z M 120.36914 862.98828 C 124.37914 920.47228 135.57378 987.3788 82.050781 1109.7168 C 63.388781 1152.3738 97.472281 1139.779 158.73828 1233.418 C 201.65928 1299.018 235.98769 1393.6573 250.80469 1422.0723 C 249.82669 1420.1163 251.92753 1413.9759 252.14453 1411.5859 C 255.15753 1378.4459 255.21869 1381.929 260.55469 1359.25 C 265.00369 1340.343 281.41411 1296.737 293.41211 1278.416 C 311.30811 1251.087 335.8992 1241.4922 368.0332 1241.4922 C 368.0332 1241.4922 369.90225 1240.9316 369.90625 1240.9316 C 378.74125 1239.1596 354.29778 1225.5276 342.80078 1220.9316 C 310.26878 1207.9186 256.51531 1216.787 225.32031 1252.627 C 223.42931 1254.799 221.85755 1257.635 219.43555 1259.25 L 217.56641 1255.5117 L 217.00586 1255.1387 C 209.67786 1244.1467 191.02644 1225.0987 179.52344 1206.3457 C 109.14744 1091.6107 155.88281 1180.6155 155.88281 1012.5215 C 155.88281 968.32848 151.54744 925.34583 130.64844 883.54883 L 120.36914 862.98828 z M 638.12891 919.06055 C 636.90091 921.51655 637.19966 918.72109 627.84766 959.24609 C 610.50166 1034.4121 571.23242 1104.2141 533.73242 1172.0781 C 532.23442 1174.7881 535.0135 1175.708 537.0625 1174.543 C 578.9945 1150.719 603.59083 1118.9746 623.17383 1079.8086 L 623.73438 1079.4355 C 624.19337 1078.7465 624.02342 1079.0015 624.48242 1078.3125 L 625.04297 1077.9395 C 640.24697 1153.9585 655.18934 1187.6385 660.90234 1179.3125 C 673.50334 1160.9455 664.91703 1177.6298 692.33203 1122.7988 L 692.89453 1122.4258 C 694.54353 1119.9528 694.64916 1121.3881 712.78516 1142.7031 C 737.31916 1171.5371 748.28145 1176.7617 769.18945 1189.4707 C 775.84245 1193.5097 772.20122 1186.8157 754.94922 1153.6387 C 734.42022 1114.1597 726.46184 1087.2072 710.08984 1026.5352 C 699.49784 987.28316 692.3337 979.18333 688.5957 1002.2363 C 684.8577 1025.2893 679.87258 1047.0972 673.64258 1067.6582 C 659.68358 1113.7232 654.27647 1066.4122 645.60547 987.2832 L 638.12891 919.06055 z M 1185.9648 958.03125 C 1185.3472 957.98709 1184.497 959.20838 1183.3594 962.05273 C 1171.5394 995.82173 1159.3881 1046.1253 1153.0781 1095.6973 C 1139.6831 1200.9453 1133.4645 1218.1176 1084.8555 1266.7266 L 1084.2949 1267.0996 C 1084.0239 1267.5056 1083.8179 1267.8157 1083.5469 1268.2207 C 1083.1409 1268.4917 1082.8308 1268.6978 1082.4258 1268.9688 C 1082.1548 1269.3747 1081.9487 1269.6848 1081.6777 1270.0898 C 1080.9897 1270.5488 1081.2446 1270.3789 1080.5566 1270.8379 C 1080.0976 1271.5259 1080.2676 1271.271 1079.8086 1271.959 C 1079.1196 1272.418 1079.3755 1272.248 1078.6875 1272.707 C 1078.2285 1273.396 1078.3985 1273.1401 1077.9395 1273.8281 C 1077.2505 1274.2871 1077.5064 1274.1172 1076.8184 1274.5762 C 1076.3594 1275.2652 1076.5293 1275.0093 1076.0703 1275.6973 L 1075.5098 1276.0703 C 1074.1088 1264.8613 1073.5033 1236.95 1048.4062 1218.127 C 1004.2953 1185.043 935.15772 1214.7198 914.76172 1255.5098 L 914.19922 1255.8848 C 913.74022 1256.5738 913.91017 1256.3169 913.45117 1257.0059 L 912.89062 1257.3809 C 911.74362 1259.6739 912.16748 1258.8242 911.02148 1261.1172 L 910.46094 1261.4922 C 910.00194 1262.1812 910.17189 1261.9253 909.71289 1262.6133 C 909.02389 1263.0723 909.2798 1262.9013 908.5918 1263.3613 L 908.21875 1263.9219 C 918.40975 1263.9219 973.17273 1243.6686 1001.3027 1293.2676 C 1011.3747 1311.7776 1012.1405 1315.9291 1011.0215 1346.1641 C 1009.9885 1374.0611 997.00711 1416.2475 985.78711 1438.6875 L 985.22656 1439.0625 L 984.85352 1439.623 C 991.26052 1439.623 996.84892 1440.1664 1003.5449 1436.8184 C 1072.2329 1402.4844 1122.922 1332.5915 1164.668 1265.2305 C 1206.801 1198.0715 1173.0455 1193.2411 1185.2285 1006.9121 C 1186.5494 987.84287 1188.9409 958.24402 1185.9648 958.03125 z M 489.99219 1135.9395 C 480.06664 1135.7531 413.56889 1226.9959 380.18164 1320.002 C 320.60664 1485.961 392.22703 1604.0491 401.45703 1604.9531 C 401.45703 1604.9531 373.87447 1496.9513 384.85547 1423.7383 C 391.40647 1380.0613 411.45703 1348.1035 411.95703 1347.1035 L 412.51953 1347.4785 C 412.97853 1348.1675 412.80858 1347.9116 413.26758 1348.5996 L 413.82812 1348.9727 C 434.00912 1449.8757 450.33316 1517.3138 507.28516 1631.2168 L 507.84766 1631.5898 C 508.30666 1632.2788 508.1367 1632.0229 508.5957 1632.7109 L 509.15625 1633.0859 C 509.15625 1618.9949 473.02016 1436.8154 487.66016 1392.8984 L 488.5957 1390.0938 C 489.2717 1391.4468 489.78884 1392.479 490.46484 1393.832 L 491.02539 1394.2051 C 491.48439 1394.8931 491.31444 1394.6382 491.77344 1395.3262 L 492.33594 1395.7012 C 568.97794 1548.9862 581.11914 1651.7754 581.11914 1651.7754 L 584.85742 1651.7754 C 592.43342 1538.1544 576.65509 1794.2372 600.74609 1408.7852 C 601.42209 1407.4322 601.93923 1406.3989 602.61523 1405.0469 C 603.50623 1407.7199 625.00691 1457.8631 638.12891 1534.9531 C 649.79891 1603.5181 648.4082 1623.7383 648.4082 1623.7383 L 652.14648 1623.7383 C 654.25348 1613.2053 660.25527 1472.9436 696.07227 1401.3086 C 696.76127 1397.8656 696.54881 1399.1442 697.00781 1395.7012 L 700.74414 1395.7012 C 701.72314 1400.5962 749.52691 1494.8092 738.12891 1608.7852 C 736.13491 1628.7242 736.25977 1629.3457 736.25977 1629.3457 L 739.99609 1629.3457 C 739.99609 1629.3447 797.00586 1401.3076 797.00586 1401.3086 C 822.74086 1478.5146 805.20231 1552.2823 796.44531 1610.6543 L 796.07031 1614.3926 L 799.80859 1614.3926 C 799.80859 1614.3926 831.67009 1540.6447 839.99609 1503.1777 C 848.31409 1465.7487 845.33292 1408.9132 844.29492 1402.2422 C 842.03692 1389.5362 881.79986 1375.9238 897.00586 1377.0098 C 910.90886 1378.0028 919.03241 1383.2014 917.56641 1412.5234 C 915.81041 1447.6424 888.2072 1528.3494 868.0332 1577.9434 C 838.5142 1650.5114 838.66097 1645.435 840.41797 1648.668 C 843.93797 1655.144 852.81019 1636.0488 854.49219 1633.0938 C 894.11719 1563.4697 978.6095 1406.232 958.6875 1326.543 C 955.5835 1314.124 951.08 1306.8224 938.5 1304.4824 C 924.839 1302.2054 914.86142 1309.4965 904.10742 1318.6895 C 901.36442 1321.0335 891.77148 1328.7832 891.77148 1328.7832 C 891.31248 1329.4722 891.48244 1329.2153 891.02344 1329.9043 C 890.33444 1330.3633 890.59034 1330.1933 889.90234 1330.6523 C 889.44334 1331.3413 889.6133 1331.0864 889.1543 1331.7754 C 888.4653 1332.2344 888.7212 1332.0644 888.0332 1332.5234 C 887.5742 1333.2124 887.74416 1332.9565 887.28516 1333.6445 C 886.59616 1334.1035 886.85206 1333.9336 886.16406 1334.3926 L 885.78906 1334.9531 L 883.92188 1334.9531 L 883.54688 1334.3926 L 882.98633 1334.0176 C 878.85833 1309.2466 865.6065 1280.5655 858.6875 1266.7285 L 858.12695 1266.3535 C 857.85595 1265.9475 857.64991 1265.6374 857.37891 1265.2324 L 856.81641 1264.8594 C 855.62741 1262.4804 856.13627 1263.5001 854.94727 1261.1211 C 854.94727 1294.1941 860.55664 1309.0386 860.55664 1362.0566 L 859.99414 1362.4297 C 859.53514 1363.1187 859.70509 1362.8628 859.24609 1363.5508 C 858.84009 1363.8218 858.53195 1364.0278 858.12695 1364.2988 C 857.85595 1364.7048 857.64991 1365.0149 857.37891 1365.4199 C 856.97291 1365.6909 856.66281 1365.897 856.25781 1366.168 L 855.88281 1366.7285 C 854.52981 1367.4045 853.49653 1367.9217 852.14453 1368.5977 L 851.77148 1369.1582 C 851.08248 1369.6172 851.33839 1369.4472 850.65039 1369.9062 L 850.27539 1370.4688 L 848.40625 1370.4688 L 848.0332 1369.9062 L 847.47266 1369.5332 C 847.35466 1369.1792 804.05139 1268.3982 798.52539 1254.3242 C 793.72239 1242.0912 794.95289 1242.4297 790.46289 1242.4297 C 785.52689 1344.2237 763.35938 1390.0937 763.35938 1390.0938 C 753.22738 1359.6978 748.55653 1331.2391 735.51953 1260.0371 C 731.03753 1235.5591 729.33284 1209.5732 724.21484 1210.6152 C 721.29484 1211.2092 721.44686 1221.1524 716.63086 1245.2344 C 701.11286 1330.5834 653.4198 1385.8256 649.3418 1388.5996 C 642.0728 1393.8336 614.37081 1321.4425 616.25781 1240.9355 C 616.79881 1206.5975 621.5523 1193.9844 608.7793 1212.8984 C 589.1453 1241.7944 580.03608 1265.424 572.70508 1293.832 C 559.07308 1346.656 562.19025 1418.643 548.40625 1393.832 C 531.25725 1362.964 529.77744 1335.1325 530.64844 1299.4395 C 532.00144 1243.9755 539.50548 1220.9328 531.02148 1231.2168 C 519.27448 1245.8998 502.58592 1251.9208 464.29492 1324.6738 C 433.38992 1383.0498 444.81661 1246.0693 486.72461 1151.7773 C 491.56173 1140.8945 492.2827 1135.9825 489.99219 1135.9395 z M 173.25781 1239.0078 C 173.37609 1239.0162 173.50338 1239.035 173.64062 1239.0625 C 173.22563 1238.9795 172.8255 1239.0257 172.4375 1239.1777 C 172.63175 1239.0427 172.90297 1238.9825 173.25781 1239.0078 z "
     id="path2" />
</svg>
